<svg width="668" height="354" xmlns="http://www.w3.org/2000/svg"><defs><filter id="a"><feColorMatrix in="SourceGraphic" values="0 0 0 0 1.000000 0 0 0 0 1.000000 0 0 0 0 1.000000 0 0 0 1.000000 0"/></filter><filter id="b"><feColorMatrix in="SourceGraphic" values="0 0 0 0 0.568627 0 0 0 0 0.796078 0 0 0 0 0.898039 0 0 0 1.000000 0"/></filter><filter id="c"><feColorMatrix in="SourceGraphic" values="0 0 0 0 0.568627 0 0 0 0 0.796078 0 0 0 0 0.898039 0 0 0 1.000000 0"/></filter><filter id="d"><feColorMatrix in="SourceGraphic" values="0 0 0 0 0.706192 0 0 0 0 0.842099 0 0 0 0 0.903023 0 0 0 1.000000 0"/></filter></defs><g fill="none" fill-rule="evenodd"><g transform="translate(228.134 14.68)"><rect width="58.968" height="12.332" rx="2.497" transform="translate(129.618 97.897)" fill="#EAF8FF"/><rect fill="#EAF8FF" x="64.638" y="17.01" width="58.968" height="46.987" rx="2.497"/><rect fill="#F3FBFF" x="64.638" y="78.246" width="58.968" height="13.922" rx="2.497"/><rect fill="#EAF8FF" x="64.638" y="127.008" width="58.968" height="13.922" rx="2.497"/><rect fill="#EAF8FF" x="193.914" y="127.008" width="58.968" height="13.922" rx="2.497"/><rect fill="#F3FBFF" x="193.914" y="103.194" width="58.968" height="13.922" rx="2.497"/><rect fill="#F3FBFF" x="258.552" y="38.37" width="58.968" height="20.013" rx="2.497"/><rect fill="#EAF8FF" x="258.552" width="58.968" height="11.312" rx="2.497"/><rect fill="#EAF8FF" x="129.276" width="58.968" height="11.312" rx="2.497"/><rect fill="#EAF8FF" width="58.968" height="11.312" rx="2.497"/><rect fill="#F3FBFF" transform="matrix(1 0 0 -1 0 101.556)" x="129.276" y="36.288" width="58.968" height="28.98" rx="2.497"/><rect fill="#F3FBFF" y="39.69" width="58.968" height="57.371" rx="2.497"/><rect fill="#EAF8FF" x="258.552" y="71.864" width="58.968" height="57.96" rx="2.497"/><rect fill="#EAF8FF" x="193.914" y="27.216" width="58.968" height="46.987" rx="2.497"/></g><path fill="#E5F7FF" fill-rule="nonzero" d="M292.458 1.89l.63.002-.274 154.962h-.63zM357.725 1.891v165.63h-.63V1.891zM421.732 1.892l.63-.002.454 157.962-.63.002zM486.371 1.89l.63.001-.186 165.964h-.63z"/><path d="M89.354 21h91.713a4.245 4.245 0 014.224 4.67l-1.527 15.178a4.245 4.245 0 01-4.224 3.82H87.827a4.245 4.245 0 01-4.224-4.67l1.528-15.178A4.245 4.245 0 0189.354 21z" fill="#57C1F1"/><path d="M171.354 101h91.713a4.245 4.245 0 014.224 4.67l-1.527 15.178a4.245 4.245 0 01-4.224 3.82h-91.713a4.245 4.245 0 01-4.224-4.67l1.528-15.178a4.245 4.245 0 014.223-3.82z" fill="#049BDE"/><g fill="#FFF"><path d="M114.462 35.856c.56-2.67.86-4.108.898-4.315.037-.207.095-.554.174-1.04l.049-.338h.029l2.007 5.693h1.272l1.513-7.157h-1.072l-.783 3.686c-.05.212-.114.544-.196.996-.082.452-.132.766-.152.943h-.034l-1.953-5.625h-1.312l-1.512 7.157h1.072zm8.4.097c.322 0 .615-.03.878-.09.262-.06.55-.162.864-.306v-.915c-.317.15-.591.256-.823.318a2.697 2.697 0 01-.7.093c-.365 0-.64-.103-.824-.309-.185-.205-.277-.489-.277-.851v-.142l.01-.152h.21c1.005 0 1.78-.167 2.323-.502.543-.334.815-.798.815-1.392 0-.434-.146-.77-.438-1.006-.292-.237-.701-.355-1.226-.355-.536 0-1.02.152-1.452.455-.432.304-.775.734-1.028 1.29a4.307 4.307 0 00-.379 1.804c0 .65.18 1.155.54 1.517.362.362.863.543 1.506.543zm-.593-3.196h-.142c.12-.46.319-.83.595-1.11.275-.282.57-.422.883-.422.206 0 .36.047.465.14a.494.494 0 01.157.389c0 .32-.173.567-.52.741-.345.175-.825.262-1.438.262zm5.252 3.099a466.392 466.392 0 001.691-3.78c.087-.205.17-.409.252-.611l-.014.979.004.343.093 3.069h1.312l2.536-5.414H132.2a534.857 534.857 0 00-1.23 2.785 36.3 36.3 0 00-.59 1.576h-.03l.015-1.145-.005-.26-.093-2.956h-1.243l-1.361 3.03c-.14.313-.318.757-.534 1.331h-.029c.03-.515.047-.915.054-1.199l-.064-3.162h-1.082l.23 5.414h1.283zm9.422 0l.48-2.296c.147-.689.373-1.24.678-1.655.305-.414.637-.621.996-.621.382 0 .573.22.573.66 0 .147-.028.355-.083.622l-.7 3.29h1.15l.494-2.355c.14-.669.363-1.206.668-1.61.306-.405.634-.607.987-.607.395 0 .592.21.592.631 0 .124-.03.341-.093.651l-.7 3.29h1.15l.686-3.197c.071-.382.107-.677.107-.886 0-.453-.113-.805-.34-1.054-.227-.25-.557-.375-.991-.375-.336 0-.66.097-.972.291-.311.194-.59.48-.834.86h-.04c-.11-.768-.525-1.151-1.243-1.151-.665 0-1.24.367-1.723 1.101h-.044l.103-1.003h-.9l-1.156 5.414h1.155zm10.025.097c.323 0 .616-.03.879-.09.262-.06.55-.162.864-.306v-.915c-.317.15-.591.256-.823.318a2.697 2.697 0 01-.7.093c-.365 0-.64-.103-.824-.309-.185-.205-.277-.489-.277-.851v-.142l.01-.152h.21c1.005 0 1.78-.167 2.323-.502.543-.334.815-.798.815-1.392 0-.434-.146-.77-.438-1.006-.292-.237-.701-.355-1.226-.355-.536 0-1.02.152-1.452.455-.432.304-.775.734-1.028 1.29a4.307 4.307 0 00-.379 1.804c0 .65.18 1.155.54 1.517.361.362.863.543 1.506.543zm-.592-3.196h-.142c.12-.46.319-.83.595-1.11.275-.282.57-.422.883-.422.206 0 .36.047.465.14a.494.494 0 01.157.389c0 .32-.173.567-.52.741-.345.175-.825.262-1.438.262zm5.854 3.196c.323 0 .616-.03.879-.09.262-.06.55-.162.863-.306v-.915c-.316.15-.59.256-.822.318a2.697 2.697 0 01-.7.093c-.365 0-.64-.103-.825-.309-.184-.205-.276-.489-.276-.851v-.142l.01-.152h.21c1.005 0 1.78-.167 2.323-.502.543-.334.815-.798.815-1.392 0-.434-.146-.77-.438-1.006-.292-.237-.701-.355-1.227-.355-.535 0-1.018.152-1.45.455-.433.304-.776.734-1.029 1.29a4.307 4.307 0 00-.38 1.804c0 .65.181 1.155.542 1.517.36.362.862.543 1.505.543zm-.592-3.196h-.142c.12-.46.319-.83.594-1.11.276-.282.57-.422.884-.422.206 0 .36.047.465.14a.494.494 0 01.157.389c0 .32-.173.567-.52.741-.345.175-.825.262-1.438.262zm5.262 3.196c.195 0 .391-.02.587-.063.196-.043.35-.092.465-.147v-.871c-.27.1-.517.151-.74.151-.166 0-.29-.041-.371-.124a.458.458 0 01-.123-.336c0-.12.022-.27.064-.45l.597-2.8h1.356l.191-.871h-1.366l.255-1.204h-.715l-.631 1.135-.93.402-.103.538h.793l-.592 2.79a3.077 3.077 0 00-.079.641c0 .806.447 1.21 1.342 1.21zm3.984-6.314a.686.686 0 00.514-.2c.13-.134.196-.317.196-.549 0-.176-.054-.307-.162-.394a.652.652 0 00-.42-.13c-.232 0-.412.07-.54.206a.76.76 0 00-.19.539c0 .182.057.316.171.4a.703.703 0 00.43.128zm-.832 6.217l1.15-5.414h-1.15l-1.155 5.414h1.155zm2.756 0l.48-2.296c.09-.444.228-.841.41-1.192.183-.35.389-.62.617-.805.229-.186.46-.28.695-.28.421 0 .632.215.632.642 0 .134-.03.348-.088.641l-.695 3.29h1.155l.67-3.197c.075-.365.113-.66.113-.886 0-.457-.12-.809-.36-1.057-.24-.248-.578-.372-1.016-.372-.336 0-.647.087-.934.262-.288.175-.567.454-.837.84h-.045l.103-1.004h-.9l-1.156 5.414h1.156zm6.02 2.408c.907 0 1.607-.175 2.1-.524.493-.35.74-.843.74-1.483 0-.398-.125-.704-.373-.918-.248-.214-.659-.356-1.233-.428l-.622-.078a1.709 1.709 0 01-.448-.108c-.103-.046-.154-.13-.154-.255 0-.208.181-.378.543-.509.13.026.281.04.45.04.653 0 1.174-.186 1.562-.556.388-.37.583-.87.583-1.5 0-.258-.046-.482-.137-.67l.94-.162.151-.671h-1.875a3.218 3.218 0 00-.783-.098c-.656 0-1.184.196-1.583.587-.4.392-.6.908-.6 1.547 0 .558.22.97.66 1.234-.325.153-.564.312-.716.477a.835.835 0 00-.228.585c0 .267.124.475.372.621-.502.17-.867.377-1.094.622-.227.245-.34.535-.34.871 0 .428.182.764.546 1.009.364.244.877.367 1.54.367zm1.023-5.012c-.215 0-.38-.063-.497-.189-.115-.126-.173-.304-.173-.536 0-.258.044-.495.132-.712a1.22 1.22 0 01.372-.514.877.877 0 01.558-.188c.434 0 .65.231.65.695 0 .264-.042.507-.129.729a1.245 1.245 0 01-.362.524.84.84 0 01-.55.19zm-.964 4.2c-.372 0-.649-.064-.83-.19a.587.587 0 01-.271-.506c0-.254.098-.468.293-.641.196-.173.477-.289.842-.348l.67.069c.37.04.627.106.774.2.147.095.22.226.22.392 0 .33-.15.583-.45.759-.3.176-.716.264-1.248.264zM196.462 115.856c.56-2.67.86-4.108.898-4.315.037-.207.095-.554.174-1.04l.049-.338h.029l2.007 5.693h1.272l1.513-7.157h-1.072l-.783 3.686c-.05.212-.114.544-.196.996-.082.452-.132.766-.152.943h-.034l-1.953-5.625h-1.312l-1.512 7.157h1.072zm8.4.097c.322 0 .615-.03.878-.09.262-.06.55-.162.864-.306v-.915c-.317.15-.591.256-.823.318a2.697 2.697 0 01-.7.093c-.365 0-.64-.103-.824-.309-.185-.205-.277-.489-.277-.851v-.142l.01-.152h.21c1.005 0 1.78-.167 2.323-.502.543-.334.815-.798.815-1.392 0-.434-.146-.77-.438-1.006-.292-.237-.701-.355-1.226-.355-.536 0-1.02.152-1.452.455-.432.304-.775.734-1.028 1.29a4.307 4.307 0 00-.379 1.804c0 .65.18 1.155.54 1.517.362.362.863.543 1.506.543zm-.593-3.196h-.142c.12-.46.319-.83.595-1.11.275-.282.57-.422.883-.422.206 0 .36.047.465.14a.494.494 0 01.157.389c0 .32-.173.567-.52.741-.345.175-.825.262-1.438.262zm5.252 3.099a466.43 466.43 0 001.691-3.78c.087-.205.17-.409.252-.611l-.014.979.004.343.093 3.069h1.312l2.536-5.414H214.2a534.888 534.888 0 00-1.23 2.785 36.303 36.303 0 00-.59 1.576h-.03l.015-1.145-.005-.26-.093-2.956h-1.243l-1.361 3.03c-.14.313-.318.757-.534 1.331h-.029c.03-.515.047-.915.054-1.199l-.064-3.162h-1.082l.23 5.414h1.283zm9.422 0l.48-2.296c.147-.689.373-1.24.678-1.655.305-.414.637-.621.996-.621.382 0 .573.22.573.66 0 .147-.028.355-.083.622l-.7 3.29h1.15l.494-2.355c.14-.669.363-1.206.668-1.61.306-.405.634-.607.987-.607.395 0 .592.21.592.631 0 .124-.03.341-.093.651l-.7 3.29h1.15l.686-3.197c.071-.382.107-.677.107-.886 0-.453-.113-.805-.34-1.054-.227-.25-.557-.375-.991-.375-.336 0-.66.097-.972.291-.311.194-.59.48-.834.86h-.04c-.11-.768-.525-1.151-1.243-1.151-.665 0-1.24.367-1.723 1.101h-.044l.103-1.003h-.9l-1.156 5.414h1.155zm10.025.097c.323 0 .616-.03.879-.09.262-.06.55-.162.864-.306v-.915c-.317.15-.591.256-.823.318a2.697 2.697 0 01-.7.093c-.365 0-.64-.103-.824-.309-.185-.205-.277-.489-.277-.851v-.142l.01-.152h.21c1.005 0 1.78-.167 2.323-.502.543-.334.815-.798.815-1.392 0-.434-.146-.77-.438-1.006-.292-.237-.701-.355-1.226-.355-.536 0-1.02.152-1.452.455-.432.304-.775.734-1.028 1.29a4.307 4.307 0 00-.379 1.804c0 .65.18 1.155.54 1.517.361.362.863.543 1.506.543zm-.592-3.196h-.142c.12-.46.319-.83.595-1.11.275-.282.57-.422.883-.422.206 0 .36.047.465.14a.494.494 0 01.157.389c0 .32-.173.567-.52.741-.345.175-.825.262-1.438.262zm5.854 3.196c.323 0 .616-.03.879-.09.262-.06.55-.162.863-.306v-.915c-.316.15-.59.256-.822.318a2.697 2.697 0 01-.7.093c-.365 0-.64-.103-.825-.309-.184-.205-.276-.489-.276-.851v-.142l.01-.152h.21c1.005 0 1.78-.167 2.323-.502.543-.334.815-.798.815-1.392 0-.434-.146-.77-.438-1.006-.292-.237-.701-.355-1.227-.355-.535 0-1.018.152-1.45.455-.433.304-.776.734-1.029 1.29a4.307 4.307 0 00-.38 1.804c0 .65.181 1.155.542 1.517.36.362.862.543 1.505.543zm-.592-3.196h-.142c.12-.46.319-.83.594-1.11.276-.282.57-.422.884-.422.206 0 .36.047.465.14a.494.494 0 01.157.389c0 .32-.173.567-.52.741-.345.175-.825.262-1.438.262zm5.262 3.196c.195 0 .391-.02.587-.063.196-.043.35-.092.465-.147v-.871c-.27.1-.517.151-.74.151-.166 0-.29-.041-.371-.124a.458.458 0 01-.123-.336c0-.12.022-.27.064-.45l.597-2.8h1.356l.191-.871h-1.366l.255-1.204h-.715l-.631 1.135-.93.402-.103.538h.793l-.592 2.79a3.077 3.077 0 00-.079.641c0 .806.447 1.21 1.342 1.21zm3.984-6.314a.686.686 0 00.514-.2c.13-.134.196-.317.196-.549 0-.176-.054-.307-.162-.394a.652.652 0 00-.42-.13c-.232 0-.412.07-.54.206a.76.76 0 00-.19.539c0 .182.057.316.171.4a.703.703 0 00.43.128zm-.832 6.217l1.15-5.414h-1.15l-1.155 5.414h1.155zm2.756 0l.48-2.296c.09-.444.228-.841.41-1.192.183-.35.389-.62.617-.805.229-.186.46-.28.695-.28.421 0 .632.215.632.642 0 .134-.03.348-.088.641l-.695 3.29h1.155l.67-3.197c.075-.365.113-.66.113-.886 0-.457-.12-.809-.36-1.057-.24-.248-.578-.372-1.016-.372-.336 0-.647.087-.934.262-.288.175-.567.454-.837.84h-.045l.103-1.004h-.9l-1.156 5.414h1.156zm6.02 2.408c.907 0 1.607-.175 2.1-.524.493-.35.74-.843.74-1.483 0-.398-.125-.704-.373-.918-.248-.214-.659-.356-1.233-.428l-.622-.078a1.709 1.709 0 01-.448-.108c-.103-.046-.154-.13-.154-.255 0-.208.181-.378.543-.509.13.026.281.04.45.04.653 0 1.174-.186 1.562-.556.388-.37.583-.87.583-1.5 0-.258-.046-.482-.137-.67l.94-.162.151-.671h-1.875a3.218 3.218 0 00-.783-.098c-.656 0-1.184.196-1.583.587-.4.392-.6.908-.6 1.547 0 .558.22.97.66 1.234-.325.153-.564.312-.716.477a.835.835 0 00-.228.585c0 .267.124.475.372.621-.502.17-.867.377-1.094.622-.227.245-.34.535-.34.871 0 .428.182.764.546 1.009.364.244.877.367 1.54.367zm1.023-5.012c-.215 0-.38-.063-.497-.189-.115-.126-.173-.304-.173-.536 0-.258.044-.495.132-.712a1.22 1.22 0 01.372-.514.877.877 0 01.558-.188c.434 0 .65.231.65.695 0 .264-.042.507-.129.729a1.245 1.245 0 01-.362.524.84.84 0 01-.55.19zm-.964 4.2c-.372 0-.649-.064-.83-.19a.587.587 0 01-.271-.506c0-.254.098-.468.293-.641.196-.173.477-.289.842-.348l.67.069c.37.04.627.106.774.2.147.095.22.226.22.392 0 .33-.15.583-.45.759-.3.176-.716.264-1.248.264z" fill-rule="nonzero"/><path d="M101.347 25.63a6.62 6.62 0 014.222 1.512l-.728.727a5.624 5.624 0 101.81 2.53l.788-.787a6.647 6.647 0 11-6.091-3.983zM183.347 105.63a6.62 6.62 0 014.222 1.512l-.728.727a5.624 5.624 0 101.81 2.53l.788-.787a6.647 6.647 0 11-6.091-3.983z"/><path d="M106.282 27.828l.67.834-5.957 5.925-2.612-3.458.816-.616 1.904 2.52zM188.282 107.828l.67.834-5.957 5.925-2.612-3.458.816-.616 1.904 2.52z"/></g><path fill="#DADADA" fill-rule="nonzero" d="M79.6 38.35v1.928H63.533V38.35zM85.383 49.917v1.928H69.318v-1.928zM75.744 44.134v1.927H59.679v-1.927z"/><g fill="#DADADA" fill-rule="nonzero"><path d="M162.6 117.99v1.927h-16.066v-1.928zM168.383 129.556v1.928h-16.065v-1.928zM158.744 123.773v1.927h-16.065v-1.927z"/></g><path d="M632.067 77h-91.754a4.245 4.245 0 00-4.243 4.34l.329 14.512a4.245 4.245 0 004.243 4.148h91.755a4.245 4.245 0 004.243-4.34l-.33-14.512A4.245 4.245 0 00632.068 77z" fill="#52CAFF"/><path fill="#DADADA" fill-rule="nonzero" d="M642.2 93.256v1.928h16.066v-1.928zM636.417 104.823v1.928h16.065v-1.928zM646.056 99.04v1.928h16.065V99.04z"/><g fill="#FFF"><path d="M562.49 91.856c.56-2.67.86-4.108.898-4.315.037-.207.095-.554.173-1.04l.05-.338h.029l2.007 5.693h1.272l1.513-7.157h-1.072l-.783 3.686c-.05.212-.115.544-.196.996-.082.452-.132.766-.152.943h-.034l-1.953-5.625h-1.312l-1.513 7.157h1.072zm8.399.097c.323 0 .616-.03.879-.09.262-.06.55-.162.863-.306v-.915c-.316.15-.59.256-.822.318a2.697 2.697 0 01-.7.093c-.365 0-.64-.103-.825-.309-.184-.205-.276-.489-.276-.851v-.142l.01-.152h.21c1.005 0 1.78-.167 2.323-.502.543-.334.815-.798.815-1.392 0-.434-.146-.77-.438-1.006-.292-.237-.701-.355-1.227-.355-.535 0-1.018.152-1.45.455-.433.304-.776.734-1.029 1.29a4.307 4.307 0 00-.38 1.804c0 .65.181 1.155.542 1.517.36.362.862.543 1.505.543zm-.592-3.196h-.142c.12-.46.319-.83.594-1.11.276-.282.57-.422.884-.422.205 0 .36.047.465.14a.494.494 0 01.157.389c0 .32-.173.567-.52.741-.345.175-.825.262-1.438.262zm5.252 3.099a466.392 466.392 0 001.69-3.78c.087-.205.171-.409.253-.611l-.015.979.005.343.093 3.069h1.312l2.536-5.414h-1.195a534.857 534.857 0 00-1.23 2.785c-.078.18-.181.446-.312.8a36.3 36.3 0 00-.279.776h-.029l.015-1.145-.005-.26-.093-2.956h-1.244l-1.36 3.03c-.14.313-.318.757-.534 1.331h-.03c.03-.515.048-.915.055-1.199l-.064-3.162h-1.082l.23 5.414h1.283zm9.422 0l.48-2.296c.147-.689.373-1.24.678-1.655.305-.414.637-.621.996-.621.382 0 .573.22.573.66 0 .147-.028.355-.084.622l-.7 3.29h1.15l.495-2.355c.14-.669.363-1.206.668-1.61.305-.405.634-.607.987-.607.394 0 .592.21.592.631 0 .124-.031.341-.093.651l-.7 3.29h1.15l.685-3.197c.072-.382.108-.677.108-.886 0-.453-.113-.805-.34-1.054-.227-.25-.557-.375-.991-.375-.336 0-.66.097-.972.291-.312.194-.59.48-.834.86h-.04c-.11-.768-.525-1.151-1.243-1.151-.666 0-1.24.367-1.723 1.101h-.044l.103-1.003h-.9l-1.156 5.414h1.155zm10.025.097c.323 0 .616-.03.878-.09.263-.06.551-.162.864-.306v-.915c-.316.15-.59.256-.822.318a2.697 2.697 0 01-.7.093c-.365 0-.64-.103-.825-.309-.184-.205-.276-.489-.276-.851v-.142l.01-.152h.21c1.005 0 1.78-.167 2.323-.502.543-.334.815-.798.815-1.392 0-.434-.146-.77-.439-1.006-.292-.237-.7-.355-1.226-.355-.535 0-1.019.152-1.451.455-.432.304-.775.734-1.028 1.29a4.307 4.307 0 00-.38 1.804c0 .65.181 1.155.542 1.517.36.362.862.543 1.505.543zm-.592-3.196h-.142c.12-.46.319-.83.594-1.11.276-.282.57-.422.884-.422.205 0 .36.047.465.14a.494.494 0 01.156.389c0 .32-.172.567-.518.741-.346.175-.826.262-1.44.262zm5.854 3.196c.323 0 .616-.03.878-.09.263-.06.551-.162.864-.306v-.915c-.316.15-.59.256-.822.318a2.697 2.697 0 01-.7.093c-.365 0-.64-.103-.825-.309-.184-.205-.276-.489-.276-.851v-.142l.01-.152h.21c1.005 0 1.78-.167 2.323-.502.543-.334.814-.798.814-1.392 0-.434-.146-.77-.438-1.006-.292-.237-.7-.355-1.226-.355-.535 0-1.019.152-1.451.455-.432.304-.775.734-1.028 1.29a4.307 4.307 0 00-.38 1.804c0 .65.181 1.155.542 1.517.36.362.862.543 1.505.543zm-.593-3.196h-.141c.12-.46.318-.83.594-1.11.276-.282.57-.422.884-.422.205 0 .36.047.465.14a.494.494 0 01.156.389c0 .32-.173.567-.518.741-.346.175-.826.262-1.44.262zm5.262 3.196c.196 0 .392-.02.588-.063.196-.043.35-.092.465-.147v-.871c-.271.1-.517.151-.74.151-.166 0-.29-.041-.371-.124a.458.458 0 01-.123-.336c0-.12.021-.27.064-.45l.597-2.8h1.356l.19-.871h-1.365l.255-1.204h-.715l-.631 1.135-.93.402-.103.538h.793l-.592 2.79a3.077 3.077 0 00-.079.641c0 .806.447 1.21 1.341 1.21zm3.985-6.314a.686.686 0 00.514-.2c.13-.134.195-.317.195-.549 0-.176-.053-.307-.161-.394a.652.652 0 00-.421-.13c-.232 0-.411.07-.538.206a.76.76 0 00-.191.539c0 .182.057.316.171.4a.703.703 0 00.43.128zm-.832 6.217l1.15-5.414h-1.15l-1.156 5.414h1.156zm2.755 0l.48-2.296c.091-.444.229-.841.411-1.192.183-.35.389-.62.617-.805.228-.186.46-.28.695-.28.421 0 .631.215.631.642 0 .134-.029.348-.088.641l-.695 3.29h1.155l.671-3.197c.075-.365.113-.66.113-.886 0-.457-.12-.809-.36-1.057-.24-.248-.579-.372-1.016-.372-.336 0-.648.087-.935.262-.287.175-.566.454-.837.84h-.044l.103-1.004h-.9l-1.156 5.414h1.155zm6.021 2.408c.907 0 1.607-.175 2.1-.524.493-.35.739-.843.739-1.483 0-.398-.124-.704-.372-.918-.248-.214-.66-.356-1.233-.428l-.622-.078a1.709 1.709 0 01-.448-.108c-.103-.046-.154-.13-.154-.255 0-.208.18-.378.543-.509.13.026.28.04.45.04.653 0 1.174-.186 1.562-.556.388-.37.582-.87.582-1.5 0-.258-.045-.482-.137-.67l.94-.162.152-.671h-1.875a3.218 3.218 0 00-.783-.098c-.656 0-1.184.196-1.583.587-.4.392-.6.908-.6 1.547 0 .558.22.97.66 1.234-.326.153-.565.312-.716.477a.835.835 0 00-.228.585c0 .267.124.475.372.621-.503.17-.867.377-1.094.622-.227.245-.34.535-.34.871 0 .428.182.764.546 1.009.363.244.877.367 1.539.367zm1.023-5.012c-.215 0-.381-.063-.497-.189-.116-.126-.174-.304-.174-.536 0-.258.044-.495.133-.712a1.22 1.22 0 01.372-.514.877.877 0 01.558-.188c.434 0 .65.231.65.695 0 .264-.043.507-.13.729a1.245 1.245 0 01-.361.524.84.84 0 01-.551.19zm-.964 4.2c-.372 0-.649-.064-.83-.19a.587.587 0 01-.272-.506c0-.254.098-.468.294-.641.196-.173.477-.289.842-.348l.67.069c.37.04.627.106.774.2.147.095.22.226.22.392 0 .33-.15.583-.45.759-.3.176-.716.264-1.248.264z" fill-rule="nonzero"/><path d="M549.375 81.63a6.62 6.62 0 014.222 1.512l-.728.727a5.624 5.624 0 101.81 2.53l.788-.787a6.647 6.647 0 11-6.091-3.983z"/><path d="M554.31 83.828l.67.834-5.957 5.925-2.612-3.458.816-.616 1.904 2.52z"/></g><path d="M164.278 13.761a42.907 42.907 0 014.332-2.024l-.78-1.95a45.006 45.006 0 00-4.544 2.123l.992 1.851zm8.878-3.525a35.878 35.878 0 014.676-.897l-.257-2.084a37.978 37.978 0 00-4.95.95l.53 2.031zm9.449-1.161c1.568.018 3.152.138 4.752.361l.29-2.08a39.535 39.535 0 00-5.018-.381l-.024 2.1zm9.425 1.296a47.28 47.28 0 014.57 1.444l.732-1.969a49.379 49.379 0 00-4.774-1.507l-.528 2.032zm9.023 3.328l.175.084.907-1.895-.182-.086-.9 1.897zM195.7 92.946a63.312 63.312 0 014.323-2.132l-.856-1.918a65.41 65.41 0 00-4.466 2.203l.998 1.847zm8.802-3.914a54.158 54.158 0 014.601-1.385l-.515-2.036a56.258 56.258 0 00-4.78 1.44l.694 1.981zm9.316-2.348a51.025 51.025 0 014.774-.517l-.127-2.096a53.125 53.125 0 00-4.97.538l.323 2.075zm9.571-.585c1.587.05 3.184.174 4.792.37l.254-2.085a55.968 55.968 0 00-4.978-.384l-.068 2.099zm9.567 1.159a62.57 62.57 0 014.676 1.166l.585-2.017a64.669 64.669 0 00-4.833-1.205l-.428 2.056zm9.262 2.675a76.827 76.827 0 014.48 1.813l.848-1.922a78.926 78.926 0 00-4.604-1.862l-.724 1.971zM516.084 67.054a53.049 53.049 0 014.359-2.022l-.795-1.943a55.147 55.147 0 00-4.532 2.101l.968 1.864zm8.89-3.62a45.353 45.353 0 014.655-1.122l-.382-2.065a47.452 47.452 0 00-4.87 1.174l.597 2.013zm9.417-1.739a44.66 44.66 0 014.787-.099l.069-2.098a46.76 46.76 0 00-5.013.103l.157 2.094zm9.555.304c1.56.212 3.133.502 4.72.872l.477-2.045a52.925 52.925 0 00-4.915-.908L543.946 62zm9.385 2.178a63.623 63.623 0 014.522 1.67l.8-1.943a65.722 65.722 0 00-4.672-1.724l-.65 1.997z" fill="#DADADA" fill-rule="nonzero"/><path d="M543.257 250.78l-7.896 2.868 1.38 3.349c-18.934.557-34.498 3.91-34.241 20.38v16.578h20.378v26.981l70.098-3.577.055-26.975 28.027-4.773c-.172.565-2.18-3.097-6.024-10.984-5.766-11.83-15.288-16.083-33.673-18.432l.867-2.948-7.678-3.556-2.293 3.957c-1.371 8.609-7.317 11.664-13.459 14.48-10.797-4.6-15.957-10.387-15.541-17.347z" fill="#E5F7FF"/><path d="M92.213 189.477c.845.005 1.256.448 1.566 1.085.124.255.228.562.329.94l.053.21.107.466.054.259.109.568.111.639.152.948.096.64.25 1.801.64 4.801.218 1.522.14.863.12.679.061.312.358-.052c3.903-.537 8.96-.327 15.194.614l1.193.186.086-.01c1.184-.193 2.063-1.956 2.364-5.67l.046-.655.034-.695.013-.362.009-.353 3 .066c-.012.496-.03.975-.058 1.44l-.048.682c-.432 5.368-2.086 8.375-5.296 8.556l-.339.01-.134-.022a101.242 101.242 0 00-3.776-.547l-1.186-.14c-5.06-.558-9.097-.517-12.088.112a1.577 1.577 0 01-1.377-.363 1.858 1.858 0 01-.425-.54 3.844 3.844 0 01-.304-.793l-.05-.185-.1-.42a17.503 17.503 0 01-.05-.235l-.102-.523-.052-.288-.217-1.334-.178-1.234-.527-3.957-.504 3.787-.251 1.715-.16.965-.102.556-.1.486c-.05.226-.099.426-.148.603-.087.31-.177.563-.291.783-.1.192-.218.362-.385.521-.33.313-.78.503-1.309.435-5.571-.716-11.375-.427-19.244.943-1.315.23-2.052-.497-2.822-2.033l-.202-.42-.186-.41-.167-.392-.172-.423-.18-.465-.3-.8-1.1-3.043-.12-.306-.246-.57-.124-.263a2.709 2.709 0 00-.193-.34l.028.028a1.19 1.19 0 00.929.262l.144-.028-.715-2.913c1.26-.31 1.82.227 2.475 1.603l.182.396.174.403.167.41.178.46.25.675.68 1.895.293.797.174.456.16.407.153.367.148.336.165.35c.08.162.155.303.224.422l.052.087.194-.033c7.016-1.18 12.507-1.508 17.717-1.019l.512.05.08-.396.08-.438.165-1.008.199-1.362.832-6.188.178-1.212.141-.898.135-.782.088-.461.086-.416c.115-.524.228-.937.352-1.261a2.66 2.66 0 01.328-.624c.302-.417.732-.72 1.362-.715z" fill="#333" fill-rule="nonzero"/><path d="M107.95 259.885l5.314 60.375 13.236-.186-.177-10.75 19.177-6.059c-1.785-2.661-15.248-47.646-37.55-43.38z" fill="#E5F7FF"/><path fill="#333" d="M106.6 260.02l2.992-.21 3.976 56.862-2.993.209z"/><path d="M90.521 169.326c24.429-.919 30.502 23.42 27.709 42.268l-.175 1.133a99.773 99.773 0 01-.496 2.843l-.223 1.139a88.378 88.378 0 01-2.295 8.985l-.352 1.09c-4.373 13.207-12.017 23.983-23.562 23.22-12.336-.815-20.465-12.532-24.802-26.38l-.326-1.07a82.818 82.818 0 01-2.075-8.75l-.193-1.105-.179-1.105c-2.858-18.4 2.541-41.35 26.97-42.268zm21.387 15.079c-4.126-8.137-11.128-12.463-21.274-12.08-10.259.385-17.193 4.954-21.143 12.913-3.477 7.007-4.442 16.446-2.974 25.896 3.178 20.458 12.462 35.06 24.808 35.876 10.577.7 18.89-11.258 22.8-29.537l.254-1.228c.165-.825.321-1.662.468-2.51l.215-1.282c.069-.43.136-.863.2-1.299 1.427-9.625.3-19.544-3.354-26.75z" fill="#333" fill-rule="nonzero"/><path d="M87.13 170.585c-12.579-5.88-29.256.62-35.294 14.812-7.254 17.051 1 40.851 27.051 67.886l.795.82 2.149-2.094c-25.923-26.597-34.002-49.528-27.234-65.437 5.322-12.51 19.933-18.31 30.93-13.42l.333.15 1.27-2.717zM125 285.494l3 .012-.177 45.384-3-.012zM106.886 265.585l1.865 2.35-17.314 13.732-13.15-10.218-4.38-3.38 1.823-2.382 5.36 4.138 10.328 8.027z" fill="#333" fill-rule="nonzero"/><path d="M62.832 209.91l1.806-1.024 1.981 10.02.561 2.93.188 1.059.027.175.075.699.014.187c.012.27-.03.34-.176.416l-.3.146-.171.096-.47.304h-.446c-3.928 0-6.933-3.737-6.933-8.074 0-2.935 1.49-5.6 3.844-6.935zm-.187 4.333l-.071.13a5.402 5.402 0 00-.586 2.471l.004.24c.065 1.743.833 3.254 1.922 4.104l.106.077-.965-4.945-.41-2.077zM89.41 233.607l.978 1.138c2.006 2.336 4.203 2.213 6.392.109l.173-.17 1.056-1.066 2.13 2.112-1.055 1.065c-3.316 3.346-7.493 3.757-10.787.115l-.185-.211-.977-1.138 2.276-1.954zM87.64 217.173l-1.157-.955c-1.87-1.546-3.385-1.508-5.338-.108l-.204.15-1.198.902-1.805-2.397 1.199-.902c3.013-2.269 6.013-2.504 9.03-.14l.227.182 1.157.956-1.911 2.312zM102.31 217.178l-2.354-1.86.93-1.177c2.049-2.594 4.543-2.905 6.652-.14l.143.194.876 1.217-2.435 1.752-.972-1.348-.175-.23c-.525-.663-.786-.683-1.34-.063l-.186.218-.209.26-.93 1.177zM98.297 223.697c.438 1.235.662 2.248.654 3.085-.026 2.614-2.063 3.662-5.096 3.236l-.248-.037.485-2.961c.84.138 1.423.123 1.722.019l.074-.03c.043-.02.055-.027.06-.112l.003-.144c.003-.383-.124-.996-.395-1.804l-.086-.249 2.827-1.003zM96.274 247.936l2.925-.667.152.648.172.69.19.732.21.774.228.816.121.423.257.878.276.92.45 1.458.491 1.55.45 1.385.151.029c.67.119 1.37.218 2.114.302l.762.08.96.083.832.059 1.878.107 1.171.06.918.052.866.054.815.057.39.03.748.065c.242.022.477.046.706.07l.668.077c.326.04.638.083.94.13l.589.097.563.107c.459.093.895.197 1.316.315l.5.147c.41.129.81.271 1.209.43l.477.2c.08.034.159.07.239.105l.48.225c1.002.474 1.973 1.136 2.948 1.991l.531.471.408.371.386.366.3.299.298.311.389.432.323.379.427.528.464.604.512.694.57.8.508.726.706 1.027 1.695 2.513 4.25 6.397.053.086c5.515 9.684 9.495 18.907 11.901 27.949.015-.005-3.077-.069-3.108 0-2.28-8.255-5.92-16.707-10.9-25.579l-.478-.844-3.084-4.65-1.934-2.89-1.085-1.598-.77-1.11-.41-.58-.497-.687-.34-.456-.316-.41-.296-.373-.372-.444-.353-.398-.259-.276-.14-.144c-.14-.142-.282-.28-.426-.417l-.146-.136a38.084 38.084 0 00-.787-.707c-.775-.68-1.518-1.186-2.263-1.539l-.417-.194-.418-.18c-.28-.115-.562-.22-.85-.318l-.44-.14c-.668-.2-1.383-.362-2.195-.496l-.556-.085c-.19-.027-.387-.053-.589-.078l-.623-.071a44.716 44.716 0 00-.327-.034l-.683-.062-.727-.059c-.125-.01-.252-.018-.38-.027l-1.218-.079-3.362-.181-1.158-.075-.762-.06-.758-.072a36.58 36.58 0 01-3.465-.498l-.539-.111-.837-.182-.646-1.96-.53-1.644-.487-1.55-.3-.983-.416-1.396-.254-.879-.234-.838-.216-.797-.196-.756-.178-.715-.158-.674z" fill="#333" fill-rule="nonzero"/><path d="M29.5 305.5l23.5 5-2.418 10.265 20.732-2.042L74.78 262c-15.06-3.744-26.154-.078-33.28 11l-12 32.5z" fill="#E5F7FF"/><path d="M80.57 245.567l-4.097 13.588-2.082-.068-1.543-.055-1.454-.041-1.4-.025c-4.818-.06-8.772.194-12.948.983-10.586 2.001-17.966 7.089-20.704 16.279a3958.286 3958.286 0 00-10.582 36.125l-1.132 3.943 2.884.826a3932.564 3932.564 0 0111.705-40.037c2.367-7.943 8.796-12.375 18.387-14.188 4.518-.854 8.823-1.047 14.447-.888l4.526.15.196.004.374-.002.218-.01.182-.018 1.217-.184 4.678-15.516-2.872-.866z" fill="#333" fill-rule="nonzero"/><path fill="#333" fill-rule="nonzero" d="M56.038 286.126l2.924.674-9 39.037-2.924-.674zM145.233 302.485l.534 2.03-19 5-.534-2.03z"/><path fill="#333" fill-rule="nonzero" d="M145.118 302.05l.764 2.9-19 5-.764-2.9zM73.453 259.794l2.994.182-3.45 56.615-2.994-.182z"/><g transform="rotate(8 -838.456 3898.805)"><path d="M61.199 58.844c3.092 0 5.6-2.82 5.6-6.3 0-2.461-1.255-4.593-3.085-5.63L61.2 58.844z" stroke="#333" stroke-width="3"/><path d="M4.394 45.61l1.784-1.012 3.32 15.746H7.65c-3.963 0-7.1-3.529-7.1-7.8 0-2.935 1.49-5.6 3.845-6.935zm-.164 4.289l-.095.175a5.402 5.402 0 00-.586 2.47l.005.23c.066 1.667.858 3.09 1.993 3.887l.127.085-1.444-6.847z" fill="#333" fill-rule="nonzero"/><circle fill="#333" cx="21.099" cy="43.944" r="3.5"/><circle fill="#333" cx="46.799" cy="43.944" r="3.5"/><path d="M28.999 71.565c4.08 3.052 7.596 2.251 10.9 0" stroke="#333" stroke-width="3" stroke-linecap="square"/><path d="M59.635 16.934c1.481 3.385 2.368 7.05 2.81 11.614l.087.993.074 1.02c.057.864.1 1.76.13 2.69l.03 1.132.011.58.013 1.186.002.607L62.787 38l-.017 1.333-.789-2.073-.564-1.454-.545-1.383-.355-.882-.347-.851-.34-.822-.66-1.553-.479-1.09-.312-.691-.307-.664-.45-.945-.295-.598-.29-.571-.287-.547-.282-.521-.28-.498-.138-.24-.274-.462-.136-.222-.271-.428-.269-.406-.266-.384a18.634 18.634 0 00-.133-.184l-.264-.353a15.744 15.744 0 00-.132-.168l-.262-.322-.262-.303a11.779 11.779 0 00-.262-.283l-.26-.265a9.755 9.755 0 00-.262-.246l-.262-.23a8.454 8.454 0 00-.132-.107l-.263-.204a7.146 7.146 0 00-.799-.514l-.27-.14a6.489 6.489 0 00-.547-.24l-.279-.1a6.657 6.657 0 00-.281-.086l-.286-.074a7.108 7.108 0 00-.144-.033l-.29-.057a7.741 7.741 0 00-.148-.024l-.298-.04-.303-.03a9.43 9.43 0 00-.153-.012l-.31-.016a10.946 10.946 0 00-.158-.004l-.446-.002-.45.006-.377.015c-.066.003-.133.008-.202.013l-.43.039-.474.056c-.083.01-.168.022-.255.034l-.548.081-.606.1-.935.165-4.506.845c-4.58.835-8.15 1.272-11.642 1.3-4.174.034-7.741-.567-10.668-1.918l-1.777-.82-.436 2.537-.216 1.208-.217 1.167-.11.57-.221 1.109c-.037.182-.074.362-.112.54l-.226 1.054-.23 1.019c-1.817 7.838-4.033 12.489-7.695 16.313l-.297.303-.058-.14c-1.681-4.12-1.902-10.342-.604-18.63l.187-1.143c.098-.578.203-1.166.315-1.763l.233-1.207.253-1.233.271-1.258.29-1.284.153-.651.087-.447c.417-2.213.57-4.058.442-5.57l-.008-.08 2.96-.24-.084-1.462-.006-.2c.002-.474.103-.98.31-1.52l.029-.074.131.13c1.61 1.53 3.716 1.75 6.052.542l.424-.229c.411-.217.895-.432 1.45-.644l.494-.181.529-.18.564-.179.598-.177.312-.088.65-.175.686-.174.72-.171.754-.17.39-.085.806-.168.84-.166.876-.164.909-.163.943-.16.977-.16 1.011-.156 1.581-.232 1.028-.143-.07.004c14.541-.62 22.95 3.926 27.067 13.052l.145.327zM32.295.558l-.137.012-1.143.158-1.109.16-1.074.164-1.04.165-1.004.168-.97.17-.935.173-.902.176-.866.178-.833.18c-.136.03-.27.061-.403.092l-.781.184c-.255.062-.504.125-.747.188l-.713.19-.68.193-.644.196c-1.361.427-2.484.875-3.37 1.346l-.201.109c-1.778.99-2.77.644-3.73-1.363L9.936 1.143 8.453 3.155l-.219.304c-.85 1.217-1.409 2.416-1.657 3.596l-.053.279-3.758.305.585 1.805c.407 1.256.347 3.397-.244 6.354l-.309 1.337-.29 1.313-.27 1.289a118.1 118.1 0 00-.129.634l-.242 1.252C-.335 33.395.102 41.84 3.304 46.997l.937 1.508 1.33-1.176.28-.249c5.137-4.639 7.95-10 10.149-19.662l.242-1.091.12-.56.235-1.146.231-1.185.232-1.245.035.013c2.966 1.037 6.347 1.49 10.132 1.46 3.505-.029 7.029-.439 11.416-1.215l1.481-.271 4.023-.755.83-.144.489-.078.44-.064.393-.05.35-.037c.056-.005.109-.01.16-.013l.292-.018.538-.01.387.003.239.011c.316.022.624.072.928.157l.226.07c.188.065.375.144.56.239l.223.122.112.068.222.147.111.08.223.174c.187.152.374.324.562.517l.227.242.23.263c.115.137.231.282.348.435l.236.319.239.342.12.18.245.379.249.404.253.43.257.457.263.484.269.513.274.54.139.283.284.586.29.616.448.984.466 1.057.32.746.329.78.51 1.237.351.869.732 1.849.576 1.486.806 2.12.635 1.695.889 2.407 1.183 3.252 2.552 7.063.39-8.215.061-1.398.053-1.359.064-1.969.032-1.268.023-1.233.014-1.2.005-1.167-.005-1.136-.015-1.105-.025-1.076-.036-1.048-.046-1.022-.057-.995-.069-.97-.038-.476-.087-.935-.098-.912-.11-.892c-.544-4.112-1.497-7.57-2.983-10.866C57.575 5.063 48-.112 32.295.558zm27.34 16.376c1.481 3.385 2.368 7.05 2.81 11.614l.087.993.074 1.02c.057.864.1 1.76.13 2.69l.03 1.132.011.58.013 1.186.002.607L62.787 38l-.017 1.333-.789-2.073-.564-1.454-.545-1.383-.355-.882-.347-.851-.34-.822-.66-1.553-.479-1.09-.312-.691-.307-.664-.45-.945-.295-.598-.29-.571-.287-.547-.282-.521-.28-.498-.138-.24-.274-.462-.136-.222-.271-.428-.269-.406-.266-.384a18.634 18.634 0 00-.133-.184l-.264-.353a15.744 15.744 0 00-.132-.168l-.262-.322-.262-.303a11.779 11.779 0 00-.262-.283l-.26-.265a9.755 9.755 0 00-.262-.246l-.262-.23a8.454 8.454 0 00-.132-.107l-.263-.204a7.146 7.146 0 00-.799-.514l-.27-.14a6.489 6.489 0 00-.547-.24l-.279-.1a6.657 6.657 0 00-.281-.086l-.286-.074a7.108 7.108 0 00-.144-.033l-.29-.057a7.741 7.741 0 00-.148-.024l-.298-.04-.303-.03a9.43 9.43 0 00-.153-.012l-.31-.016a10.946 10.946 0 00-.158-.004l-.446-.002-.45.006-.377.015c-.066.003-.133.008-.202.013l-.43.039-.474.056c-.083.01-.168.022-.255.034l-.548.081-.606.1-.935.165-4.506.845c-4.58.835-8.15 1.272-11.642 1.3-4.174.034-7.741-.567-10.668-1.918l-1.777-.82-.436 2.537-.216 1.208-.217 1.167-.11.57-.221 1.109c-.037.182-.074.362-.112.54l-.226 1.054-.23 1.019c-1.817 7.838-4.033 12.489-7.695 16.313l-.297.303-.058-.14c-1.681-4.12-1.902-10.342-.604-18.63l.187-1.143c.098-.578.203-1.166.315-1.763l.233-1.207.253-1.233.271-1.258.29-1.284.153-.651.087-.447c.417-2.213.57-4.058.442-5.57l-.008-.08 2.96-.24-.084-1.462-.006-.2c.002-.474.103-.98.31-1.52l.029-.074.131.13c1.61 1.53 3.716 1.75 6.052.542l.424-.229c.411-.217.895-.432 1.45-.644l.494-.181.529-.18.564-.179.598-.177.312-.088.65-.175.686-.174.72-.171.754-.17.39-.085.806-.168.84-.166.876-.164.909-.163.943-.16.977-.16 1.011-.156 1.581-.232 1.028-.143-.07.004c14.541-.62 22.95 3.926 27.067 13.052l.145.327z" fill="#DDD" fill-rule="nonzero"/><path d="M32.296.558l-.138.012-1.143.158-1.109.16-1.074.164-1.04.165-1.004.168-.97.17-.935.173-.902.176-.866.178-.833.18c-.136.03-.27.061-.403.092l-.781.184c-.255.062-.504.125-.747.188l-.713.19-.68.193-.644.196c-1.361.427-2.484.875-3.37 1.346l-.201.109c-1.778.99-2.77.644-3.73-1.363L9.936 1.143 8.453 3.155l-.219.304c-.85 1.217-1.409 2.416-1.657 3.596l-.053.279-3.758.305.585 1.805c.407 1.256.347 3.397-.244 6.354l-.309 1.337-.29 1.313-.27 1.289a118.1 118.1 0 00-.129.634l-.242 1.252C-.335 33.395.102 41.84 3.304 46.997l.937 1.508 1.33-1.176.28-.249c5.137-4.639 7.95-10 10.149-19.662l.242-1.091.12-.56.235-1.146.231-1.185.232-1.245.035.013c2.966 1.037 6.347 1.49 10.132 1.46 3.505-.029 7.029-.439 11.416-1.215l1.481-.271 4.023-.755.83-.144.489-.078.44-.064.393-.05.35-.037c.056-.005.109-.01.16-.013l.292-.018.538-.01.387.003.239.011c.316.022.624.072.928.157l.226.07c.188.065.375.144.56.239l.223.122.112.068.222.147.111.08.223.174c.187.152.374.324.562.517l.227.242.23.263c.115.137.231.282.348.435l.236.319.239.342.12.18.245.379.249.404.253.43.257.457.263.484.269.513.274.54.139.283.284.586.29.616.448.984.466 1.057.32.746.329.78.51 1.237.351.869.732 1.849.576 1.486.806 2.12.635 1.695.889 2.407 1.183 3.252 2.552 7.063.39-8.215.061-1.398.053-1.359.064-1.969.032-1.268.023-1.233.014-1.2.005-1.167-.005-1.136-.015-1.105-.025-1.076-.036-1.048-.046-1.022-.057-.995-.069-.97-.038-.476-.087-.935-.098-.912-.11-.892c-.544-4.112-1.497-7.57-2.983-10.866C57.575 5.063 48-.112 32.295.558zm27.34 16.376c1.48 3.385 2.367 7.05 2.808 11.614l.088.993.074 1.02c.057.864.1 1.76.13 2.69l.03 1.132.011.58.013 1.186.002.607L62.787 38l-.017 1.333-.789-2.073-.564-1.454-.545-1.383-.355-.882-.347-.851-.34-.822-.66-1.553-.479-1.09-.312-.691-.307-.664-.45-.945-.295-.598-.29-.571-.287-.547-.282-.521-.28-.498-.138-.24-.274-.462-.136-.222-.271-.428-.269-.406-.266-.384a18.634 18.634 0 00-.133-.184l-.264-.353a15.744 15.744 0 00-.132-.168l-.262-.322-.262-.303a11.779 11.779 0 00-.262-.283l-.26-.265a9.755 9.755 0 00-.262-.246l-.262-.23a8.454 8.454 0 00-.132-.107l-.263-.204a7.146 7.146 0 00-.799-.514l-.27-.14a6.489 6.489 0 00-.547-.24l-.279-.1a6.657 6.657 0 00-.281-.086l-.286-.074a7.108 7.108 0 00-.144-.033l-.29-.057a7.741 7.741 0 00-.148-.024l-.298-.04-.303-.03a9.43 9.43 0 00-.153-.012l-.31-.016a10.946 10.946 0 00-.158-.004l-.446-.002-.45.006-.377.015c-.066.003-.133.008-.202.013l-.43.039-.474.056c-.083.01-.168.022-.255.034l-.548.081-.606.1-.935.165-4.506.845c-4.58.835-8.15 1.272-11.642 1.3-4.174.034-7.741-.567-10.668-1.918l-1.777-.82-.436 2.537-.216 1.208-.217 1.167-.11.57-.221 1.109c-.037.182-.074.362-.112.54l-.226 1.054-.23 1.019c-1.817 7.838-4.033 12.489-7.695 16.313l-.297.303-.058-.14c-1.681-4.12-1.902-10.342-.604-18.63l.187-1.143c.098-.578.203-1.166.315-1.763l.233-1.207.253-1.233.271-1.258.29-1.284.153-.651.087-.447c.417-2.213.57-4.058.442-5.57l-.008-.08 2.96-.24-.084-1.462-.006-.2c.002-.474.103-.98.31-1.52l.029-.074.131.13c1.61 1.53 3.716 1.75 6.052.542l.424-.229c.411-.217.895-.432 1.45-.644l.494-.181.529-.18.564-.179.598-.177.312-.088.65-.175.686-.174.72-.171.754-.17.39-.085.806-.168.84-.166.876-.164.909-.163.943-.16.977-.16 1.011-.156 1.581-.232 1.028-.143-.07.004c14.541-.62 22.95 3.926 27.067 13.052l.145.327z" fill="#333" fill-rule="nonzero"/><path d="M37.7 45.775l-2.57-1.55-.491.822-.692 1.181-.432.755-.409.729-.384.702-.184.342-.349.664-.166.323-.314.626-.29.601-.136.292-.255.564-.119.273-.22.528-.196.504-.09.243-.16.468c-.324.988-.482 1.812-.477 2.48.024 2.882 2.254 3.673 5.725 2.88l.48-.119c.245-.064.494-.135.75-.213l.256-.081-.917-2.856c-1.426.457-2.47.626-3.062.552l-.234-.036a.012.012 0 01-.005-.008l.006-.085.001-.059a3.68 3.68 0 01.133-.896l.089-.323.111-.35c.041-.122.086-.249.134-.38l.157-.408.086-.215.19-.45.104-.236.224-.492.247-.52.269-.546.291-.573.314-.6.336-.626.546-.99.392-.69.63-1.086.68-1.141z" fill="#333" fill-rule="nonzero"/><path d="M8.472 56.164l14.378 13.4 3.29-5.72h17.575l2.647 4.72 14.26-12.792c-.642 14.03-6.847 40.837-26.116 40.947-19.268.11-25.628-28.35-26.034-40.555z" fill="#DDD"/><path d="M59.62 54.656L46.754 66.197l-1.73-3.086a1.5 1.5 0 00-1.309-.767H26.14l-.145.007a1.5 1.5 0 00-1.155.745L22.49 67.18 9.495 55.067c-.977-.91-2.566-.187-2.522 1.147.256 7.712 2.431 17.7 6.085 25.483 4.896 10.431 12.054 16.576 21.457 16.522 9.433-.054 16.559-5.985 21.388-16.108 3.674-7.703 5.82-17.602 6.217-26.27.06-1.329-1.51-2.073-2.5-1.185zM47.364 69.68l11.488-10.306-.016.171c-.75 7.284-2.683 15.073-5.64 21.273-4.382 9.185-10.592 14.353-18.698 14.4-8.029.046-14.274-5.316-18.724-14.797l-.322-.699c-2.643-5.88-4.434-13.016-5.152-19.28l-.064-.585 11.592 10.804.109.093a1.5 1.5 0 002.214-.443l2.856-4.968h15.829l2.218 3.954a1.5 1.5 0 002.31.383z" fill="#333" fill-rule="nonzero"/><path d="M28.696 69.465l1.201.899c3.066 2.293 5.722 2.21 8.898.134l.259-.173 1.24-.845 1.689 2.48-1.24.844c-4.191 2.857-8.21 3.136-12.371.16l-.272-.198-1.201-.899 1.797-2.402z" fill="#333" fill-rule="nonzero"/></g><path d="M217.447 256.427c4.573 5.831 9.64 10.734 15.203 14.708l5.878 23.41 2.422-23.41c10.668-1.016 14.754-7.692 18.177-14.94 30.57 2.329 38.373 2.172 35.873 28.615l-76.044 38.579c-12.678.288-25.363.608-36.246-7.504 4.852-35.656-13.663-59.934 34.737-59.458z" fill="#91CBE5"/><path d="M214.272 169.679l-.186.165c-5.752 5.091-8.781 14.555-9.238 28.355-.025.781.45 1.483 1.236 1.696.404.109.755.073 1.15-.037l.204-.061.222-.08.257-.105.286-.128.02.363.04.963.035 1.096.021.896.02 1.527.005 1.315-.01 1.853-.066 5.992-.002.786.02.125c3.385 20.07 17.727 40.695 30.34 40.342 12.67-.354 26.77-20.046 30.157-39.756l.118-.711.034-7.219.026-2.29.033-1.733.045-1.715.048-1.445.013-.331.616-.109.296-.06c.221-.048.39-.097.582-.168.81-.3 1.414-.854 1.44-1.819.352-13.09-1.844-22.153-6.75-27.183l-.201-.208-.265-.117c-17.025-7.53-32.63-7.538-49.7-.55l-.846.35zm48.716 2.673l.344.151.017.017c3.927 4.228 5.876 12.073 5.711 23.543l-.008.441-.599.107-.294.06c-.089.019-.168.038-.244.059l-.223.068a4.593 4.593 0 00-.113.04c-.804.295-1.405.838-1.445 1.793l-.03.759-.053 1.471-.031 1.06-.04 1.7-.028 1.805-.026 2.859-.024 5.736.019-.109c-3.002 18.658-16.392 37.524-27.38 37.831l-.32.003c-10.505-.09-23.575-18.873-26.878-37.282l-.077-.443.024-2.717.044-3.797.01-1.524v-.699c0-.422-.003-.825-.006-1.218l-.016-1.153-.012-.566-.031-1.14a86.975 86.975 0 00-.19-3.65c-.11-1.49-1.289-1.795-2.398-1.507l-.123.033a5.08 5.08 0 00-.517.184l-.119.049.03-.53c.68-11.464 3.341-19.28 7.868-23.475l.065-.059-.236.099c16.36-6.844 31.111-7.007 47.329.001zM204.4 282.838v21.137l18.844 4.951-.762 2.902-21.082-5.539v-23.45zM594.176 287.938l-2.385 1.25.71 27.3 2.999-.078-.63-24.249 3.587 2.624 1.771-2.422zM525.123 288.232l.227 28.462-3 .023-.227-28.46z" fill="#333" fill-rule="nonzero"/><path stroke="#333" stroke-width="3" d="M275.023 282.549l.477 34.951"/><path d="M256.764 256.014l2.884.827c-2.446 8.532-8.599 13.652-18.101 15.724l-.28.058-1.845 25.503-2.992-.217 2.012-27.807 1.146-.206c9.104-1.642 14.756-5.967 17.06-13.49l.116-.392z" fill="#333" fill-rule="nonzero"/><path d="M219.864 255.28l-2.89.804c1.386 4.988 6.013 10.142 13.832 15.573l.493.339 1.606 7.529 1.51 7.193.875 4.278.733 3.7.395 2.112.163.926.142.88.05.344.012.1 2.977-.377-.105-.727-.161-.97-.348-1.912-.6-3.083-.87-4.302-1.201-5.77-1.976-9.292-.523-2.437-.5-.338c-7.724-5.21-12.218-10.017-13.536-14.302l-.078-.267zM270.46 211.45l-1.723-.9-3.369 14.73h1.882c3.934 0 7.1-3.285 7.1-7.31 0-2.776-1.52-5.282-3.89-6.52zm.203 4.134l.065.104c.397.668.622 1.453.622 2.282l-.005.216c-.07 1.503-.872 2.796-2.031 3.508l-.056.031 1.405-6.141zM206.358 211.45l1.723-.9 3.369 14.73h-1.882c-3.934 0-7.1-3.285-7.1-7.31 0-2.776 1.52-5.282 3.89-6.52zm-.203 4.134l-.065.104a4.461 4.461 0 00-.622 2.282l.005.216c.07 1.503.872 2.796 2.031 3.508l.056.031-1.405-6.141z" fill="#333" fill-rule="nonzero"/><circle fill="#333" cx="244.15" cy="275.644" r="1.4"/><circle fill="#333" cx="243.05" cy="286.144" r="1.4"/><circle fill="#333" cx="242.35" cy="295.944" r="1.4"/><circle fill="#333" cx="225.05" cy="215.844" r="3.5"/><circle fill="#333" cx="251.75" cy="215.844" r="3.5"/><path d="M232.952 236.961l1.35.653c4.359 2.107 7.61 2.187 10.195.961l.227-.111 1.335-.683 1.366 2.67-1.335.684c-3.389 1.733-7.563 1.75-12.696-.632l-.397-.188-1.35-.653 1.305-2.7zM235.904 228.157c2.015 1.159 3.781 1.344 5.634.472l.232-.115 1.377 2.665c-2.813 1.454-5.613 1.278-8.445-.257l-.293-.164 1.495-2.6z" fill="#333" fill-rule="nonzero"/><path d="M481.462 312.34h100.853a2.962 2.962 0 012.962 2.963v3.57a2.962 2.962 0 01-2.962 2.962H481.462a2.962 2.962 0 01-2.962-2.962v-3.57a2.962 2.962 0 012.962-2.963z" fill="#FFF" fill-rule="nonzero"/><path d="M574.085 248.806l9.937 4.132-11.992 19.497-18.867-3.331 6.248-1.79c5.638-1.614 9.255-5.76 12.74-13.72l.394-.917c.066-.155.132-.312.197-.47l.394-.968.197-.496.752-1.937zm5.54 5.552l-3.864-1.607-.042.104c-3.047 7.487-6.19 12.341-10.602 15.17l-.18.111 5.606.99 9.083-14.768z" fill="#333" fill-rule="nonzero"/><path d="M543.754 250.864l.132-2.386-10.723 4.46 11.992 19.497 16.56-2.924-3.61-2.058c-9.928-5.657-14.647-11.229-14.35-16.59zm-2.9 2.124l.023.164c.776 5.079 4.852 9.942 12.048 14.656l.252.164-6.535 1.154-9.083-14.768 3.295-1.37z" fill="#333" fill-rule="nonzero"/><path fill="#333" fill-rule="nonzero" d="M557.016 268.994l3 .001-.016 41.506-3-.002zM536.79 254.515l.42 2.97-17.798 2.521-1.098.36-.782.265-.754.262-.725.26-.699.26-.672.26-.645.26-.313.13-.607.261a30.8 30.8 0 00-1.408.662l-.521.27c-3.817 2.032-5.642 4.366-6.337 8.043l-.086.499c-.027.169-.05.34-.073.515l-.06.532c-.046.45-.079.919-.1 1.407l-.02.596-.007.305-.005.622v34.77h-3v-34.77c0-.235.002-.466.006-.694l.018-.675.03-.655c.078-1.4.245-2.67.515-3.828l.132-.528c.954-3.55 2.958-6.044 6.484-8.151l.527-.306.272-.151.56-.299.289-.147.594-.292.617-.289.64-.285.664-.283c.226-.093.455-.187.689-.28l.712-.279.737-.277.762-.277.788-.276.813-.276.839-.277.551-.178 18.05-2.557zM579.517 255.773a1.5 1.5 0 011.566-1.27l.144.014 16.695 2.557c.194.03.377.096.54.193l.023.016.135.054c.407.16.704.286 1.097.472 1.218.575 2.533 1.368 3.995 2.474 4.149 3.137 8.616 8.137 13.33 15.495l.864 1.357.8 1.275.74 1.2.46.761.645 1.087.4.69.376.664.354.641.334.619.312.598.294.58.274.562.256.547.24.532.222.52.208.51.192.502.091.247.172.49.082.244.153.484.142.481.067.24.065.24c.069.264.134.525.194.788l.117.529.107.54.1.558.046.288.09.597.084.63.08.672.078.718.076.771.19 2.205.128 1.576a1.5 1.5 0 11-2.99.243l-.205-2.5-.107-1.209-.108-1.075-.11-.963-.079-.589-.082-.554-.043-.266-.09-.513a24.78 24.78 0 00-.048-.249l-.101-.486c-.018-.08-.035-.16-.054-.239l-.114-.472-.119-.452-.124-.435a21.836 21.836 0 00-.065-.218l-.14-.44-.153-.445-.166-.452-.179-.461-.193-.471-.209-.483-.225-.496-.241-.51-.26-.528-.278-.545-.297-.565-.317-.586-.339-.609-.36-.633-.583-.998-.636-1.062-.456-.745-.731-1.18-.522-.828-.835-1.31c-4.531-7.073-8.763-11.81-12.613-14.721-1.296-.98-2.435-1.667-3.467-2.154-.162-.077-.304-.141-.45-.203l-.785-.321-16.428-2.515a1.5 1.5 0 01-1.27-1.566l.014-.144z"/><path d="M185.126 315.885c7.004 4.385 15.554 7.915 33.276 6.377l.554-10.083-33.83 3.706z" fill="#91CBE5"/><path d="M222.611 244.408l2.774 1.143-5.036 12.222-1.931-.001-16.1 1.996c-10.378.824-17.103 6.857-17.263 16.378l-.003.35-.001 38.537.396.231c10.04 5.806 19.806 7.521 30.944 6.208l.62-.076.379 2.976c-12.24 1.559-23.007-.319-34.036-6.857l-1.302-.786v-40.233c0-11.284 7.887-18.606 19.572-19.679l.391-.033 16.123-2 .203-.012 4.27-10.364zM254.984 244.467l3.679 10.137 18.503 1.916c12.817 2.125 19.187 7.892 19.331 18.84l.003.383v40.932h-3v-40.932c0-9.435-5.053-14.214-16.308-16.179l-.425-.072-20.282-2.097-4.32-11.904 2.82-1.024z" fill="#333" fill-rule="nonzero"/><path fill="#FFF" fill-rule="nonzero" d="M161.335 309.5l-1.475 14.066-15.7.136-1.494-14.202z"/><path fill="#333" fill-rule="nonzero" d="M523.5 293.45v2.1h-21v-2.1z"/><path fill="#333" fill-rule="nonzero" d="M523.5 293v3h-21v-3zM620.168 284.504l.664 1.992-3 1-.664-1.992z"/><path fill="#333" fill-rule="nonzero" d="M620.026 284.077l.948 2.846-3 1-.948-2.846z"/><g fill="#333" fill-rule="nonzero"><path d="M232.976 224.5a1.5 1.5 0 001.23-.64l.078-.124 3.607-6.411 4.638 6.217a1.5 1.5 0 001.055.596l.158.007 17.408-.122a1.5 1.5 0 001.398-.984l.04-.128 2.998-11.195a1.5 1.5 0 00-2.854-.914l-.044.138-2.702 10.091-15.507.109-5.562-7.457a1.5 1.5 0 00-2.433.037l-.077.124-4.308 7.656h-15.28l-2.475-10.834a1.5 1.5 0 00-1.654-1.154l-.142.026a1.5 1.5 0 00-1.154 1.654l.025.142 2.742 12a1.5 1.5 0 001.324 1.16l.139.006h17.352z"/><path d="M236.75 216.018a1.5 1.5 0 001.885.1l.118-.096 5.631-5.025h17.863l7.639 3.399a1.5 1.5 0 001.915-.632l.065-.129a1.5 1.5 0 00-.631-1.915l-.13-.065-7.93-3.53a1.5 1.5 0 00-.453-.12l-.157-.009h-18.752a1.5 1.5 0 00-.876.283l-.123.098-5.055 4.512-5-4.507a1.5 1.5 0 00-.847-.377l-.157-.009H214a1.5 1.5 0 00-.923.318l-.108.093-5.05 4.783a1.5 1.5 0 001.946 2.278l.116-.1 4.616-4.371h16.581l5.572 5.02z"/></g><path d="M580.2 226.25l-2.66 5.782a1.5 1.5 0 00.22 1.598l6.558 7.729a1.5 1.5 0 002.505-.342l4.206-9.102a1.5 1.5 0 00-.021-1.302l-.879-1.749-.069-.122a1.5 1.5 0 00-1.271-.705h-3.284l-3.022-2.344a1.5 1.5 0 00-2.282.558z" fill="#333" fill-rule="nonzero"/><path d="M582.136 229.22l1.937 1.503.137.094a1.5 1.5 0 00.782.22h2.871l.139.276-2.917 6.312-4.42-5.208 1.471-3.197z" fill="#FFF" fill-rule="nonzero"/><path d="M206.468 196.915a1.5 1.5 0 00-.45 2.537l7.9 6.832a1.5 1.5 0 001.378.313l2.314-.628 1.644-.435 1.573-.406 1.011-.253.985-.24.958-.227.935-.214.912-.2.892-.186.873-.173.856-.159.422-.074.834-.14.821-.125.407-.057.805-.105c.267-.033.533-.063.798-.091l.79-.078a44.789 44.789 0 015.101-.17l.798.026c.4.016.804.037 1.212.064l.82.06.416.035.84.081.857.095.873.11.892.122.453.067.923.144.946.158.971.172.998.186 1.026.2 1.055.214 1.088.229 1.121.242 1.749.39 1.212.279 1.894.444 1.989.476 2.09.508 1.452.356a1.5 1.5 0 001.55-.546l5.74-7.52a1.5 1.5 0 00-.75-2.344c-23.317-7.18-43.69-7.662-63.974.03zm61.024 2.215l-3.828 5.016-2.679-.651-2.713-.645-1.924-.446-1.835-.411-1.752-.379-1.126-.234-1.093-.22-1.063-.204a120.82 120.82 0 00-.52-.097l-1.021-.182c-.168-.03-.335-.058-.5-.086l-.983-.16-.483-.075-.948-.14a73.944 73.944 0 00-.928-.123l-.91-.11-.447-.05-.885-.087c-2.923-.268-5.609-.294-8.357-.082l-.827.071c-.414.04-.83.084-1.25.133l-.844.107a58.16 58.16 0 00-.426.059l-.86.128-.872.142c-.293.05-.588.102-.887.156l-.903.171c-.303.06-.61.121-.92.185l-.942.199-.962.213-1.49.346-1.547.378-1.067.27-1.098.283-1.709.45-1.617.437-5.36-4.637.384-.132c17.752-6.057 35.705-5.696 56.016.068l1.176.339z" fill="#333" fill-rule="nonzero"/><path d="M267.492 199.13l-3.828 5.016-2.679-.651-2.713-.645-1.924-.446-1.835-.411-1.752-.379-1.126-.234-1.093-.22-1.063-.204a120.82 120.82 0 00-.52-.097l-1.021-.182c-.168-.03-.335-.058-.5-.086l-.983-.16-.483-.075-.948-.14a73.944 73.944 0 00-.928-.123l-.91-.11-.447-.05-.885-.087c-2.923-.268-5.609-.294-8.357-.082l-.827.071c-.414.04-.83.084-1.25.133l-.844.107a58.16 58.16 0 00-.426.059l-.86.128-.872.142c-.293.05-.588.102-.887.156l-.903.171c-.303.06-.61.121-.92.185l-.942.199-.962.213-1.49.346-1.547.378-1.067.27-1.098.283-1.709.45-1.617.437-5.36-4.637.384-.132c17.752-6.057 35.705-5.696 56.016.068l1.176.339z" fill="#FFF" fill-rule="nonzero"/><g filter="url(#b)"><g fill="#C5C5C5" fill-rule="nonzero"><path d="M245.253 181.692a1.152 1.152 0 11-1.506 1.744c-1.013-.875-1.599-2.544-1.599-4.361 0-1.746.542-3.358 1.484-4.257a1.152 1.152 0 011.682 1.57l-.092.098c-.43.41-.77 1.421-.77 2.589 0 1.13.319 2.11.72 2.538l.08.079zM231.075 181.692a1.152 1.152 0 101.506 1.744c1.013-.875 1.599-2.544 1.599-4.361 0-1.746-.541-3.358-1.484-4.257a1.152 1.152 0 00-1.682 1.57l.092.098c.43.41.77 1.421.77 2.589 0 1.13-.319 2.11-.72 2.538l-.08.079z"/><path d="M234.415 182.96a1.152 1.152 0 001.739 1.512c.94-1.083 1.482-3.142 1.482-5.408 0-2.178-.501-4.167-1.373-5.276a1.152 1.152 0 00-1.884 1.321l.073.103c.5.636.88 2.144.88 3.852 0 1.67-.365 3.145-.838 3.796l-.08.1zM241.914 182.96a1.152 1.152 0 01-1.74 1.512c-.94-1.083-1.482-3.142-1.482-5.408 0-2.178.501-4.167 1.373-5.276a1.152 1.152 0 011.884 1.321l-.073.103c-.5.636-.88 2.144-.88 3.852 0 1.67.365 3.145.838 3.796l.08.1z"/></g></g><g filter="url(#c)"><g fill="#234C19" fill-rule="nonzero"><path d="M580.253 283.692a1.152 1.152 0 11-1.506 1.744c-1.013-.875-1.599-2.544-1.599-4.361 0-1.746.542-3.358 1.484-4.257a1.152 1.152 0 011.682 1.57l-.092.098c-.43.41-.77 1.421-.77 2.589 0 1.13.319 2.11.72 2.538l.08.079zM566.075 283.692a1.152 1.152 0 101.506 1.744c1.013-.875 1.599-2.544 1.599-4.361 0-1.746-.541-3.358-1.484-4.257a1.152 1.152 0 00-1.682 1.57l.092.098c.43.41.77 1.421.77 2.589 0 1.13-.319 2.11-.72 2.538l-.08.079z"/><path d="M569.415 284.96a1.152 1.152 0 001.739 1.512c.94-1.083 1.482-3.142 1.482-5.408 0-2.178-.501-4.167-1.373-5.276a1.152 1.152 0 00-1.884 1.321l.073.103c.5.636.88 2.144.88 3.852 0 1.67-.365 3.145-.838 3.796l-.08.1zM576.914 284.96a1.152 1.152 0 01-1.74 1.512c-.94-1.083-1.482-3.142-1.482-5.408 0-2.178.501-4.167 1.373-5.276a1.152 1.152 0 011.884 1.321l-.073.103c-.5.636-.88 2.144-.88 3.852 0 1.67.365 3.145.838 3.796l.08.1z"/></g></g><path d="M592.384 198.278l-6.968 17.675a1.5 1.5 0 00.927 1.975l6.968 2.29a1.5 1.5 0 001.836-.808l1.032-2.29 3.017-7.234a1.5 1.5 0 00.015-1.116l-4.032-10.48c-.49-1.277-2.294-1.284-2.795-.012zm1.378 4.682l2.433 6.325-2.768 6.64-.461 1.022-4.177-1.374 4.973-12.613z" fill="#333" fill-rule="nonzero"/><path fill="#FFF" fill-rule="nonzero" d="M593.762 202.96l2.433 6.325-2.768 6.64-.461 1.022-4.177-1.374z"/><g fill-rule="nonzero"><path d="M590.855 216.213l-.78-.203-.736-.18c-2.75-.639-4.659-.73-6.721-.155l-.142.047a1.5 1.5 0 00-.877 1.877l.926 2.749-.305.092c-1.241.396-2.324.943-3.27 1.68a1.5 1.5 0 00-.51 1.626l.048.135c.032.077.057.17.082.311l.039.254.03.234.03.208c.228 1.438.816 2.42 2.2 3.158l.106.054.006.04a2.34 2.34 0 00.928 1.493l.13.092c.384.262.732.381 1.335.5l.442.082.016.013c1.264.972 2.654 1.241 4.07.71l.19-.079.692 1.105-1.594 3.876a1.5 1.5 0 00.062 1.273c.862 1.626.847 2.767-.12 4.574l-.239.43c-.128.22-.27.451-.423.694l-.325.502-.459.695-.408.633c-1.485 2.346-2.083 3.817-2.207 5.943l-.013.296c-.081 2.976 1.209 6.196 4.117 9.938l.098.125 15.494 58.201a1.5 1.5 0 001.439 1.114l11.865.083a1.5 1.5 0 00.843-.252c6.122-4.082 11.022-16.047 8.194-23.256l-.058-.128-.068-.122-24.283-38.665 1.336-21.414a1.5 1.5 0 00-.033-.424l-3.14-13.896a1.5 1.5 0 00-.591-.89l-6.935-4.946a1.5 1.5 0 00-.481-.227z" fill="#333"/><path d="M589.806 219.49l6.244 4.454 2.966 13.13-1.352 21.68-.002.157c.011.26.09.513.229.735l24.455 38.942.067.18c1.945 5.643-1.95 15.372-6.667 19.001l-.147.11-10.24-.072-15.279-57.394a1.5 1.5 0 00-.277-.55c-2.792-3.496-3.885-6.235-3.749-8.563.068-1.16.354-2.089 1.056-3.355l.265-.462.145-.244.32-.514.175-.273.804-1.224c2.09-3.238 2.68-5.413 1.433-8.237l-.042-.094 1.63-3.964a1.5 1.5 0 00-.116-1.368l-1.888-3.01a1.5 1.5 0 00-2.218-.365c-.92.749-1.398.722-2.159.043a1.5 1.5 0 00-.695-.35l-.787-.146.01-.098a1.5 1.5 0 00-.996-1.481l-.176-.064-.302-.117c-.587-.244-.76-.438-.854-.884l-.04-.225-.06-.45.225-.122c.818-.425 1.789-.73 2.944-.94l.147-.034a1.5 1.5 0 001.007-1.92l-.89-2.643.154-.005c1.138-.033 2.434.173 4.17.61l.49.127z" fill="#FFF"/><path d="M589.3 224.164a1.5 1.5 0 011.1.336l.111.101 5.048 5.09a1.5 1.5 0 01-2.016 2.216l-.114-.104-4.548-4.584-4.26.417a1.5 1.5 0 01-1.617-1.203l-.021-.143a1.5 1.5 0 011.203-1.618l.144-.021 4.97-.487z" fill="#333"/><path d="M584.562 219.98l5.79.154a1.5 1.5 0 01.8.256l.114.086 5.521 4.546a1.5 1.5 0 01-1.783 2.407l-.123-.091-5.124-4.219-5.274-.14a1.5 1.5 0 01-1.457-1.395l-.003-.144a1.5 1.5 0 011.395-1.457l.144-.003zM591.992 211.85a1 1 0 011.454.386l.047.11 2.262 6.4a1 1 0 01-1.84.775l-.046-.108-1.808-5.113-.069.067c-.494.494-.51.892-.184 1.532l.065.123a1 1 0 01-1.754.962c-1.233-2.249-.45-3.571 1.873-5.134z" fill="#333"/></g><path d="M163.161 326.5l-.052.108A3.5 3.5 0 01160 328.5h-15l-.192-.005a3.5 3.5 0 01-2.917-1.887l-.053-.108h21.323z" fill="#FFF" fill-rule="nonzero"/><path fill="#333" fill-rule="nonzero" d="M27.705 306.63l.665-2.925 24.925 5.665-.665 2.925z"/><g><path d="M339.28 270.688c-1.001-10.47 2.594-15.736 6.507-21.62-8.087-8.79-3.959-15.893 4.968-22.334-5.783-7.364-6.13-14.397 0-21.038 3.145-43.444 66.906-43.357 71.23-1.156 5.42 7.833 8.306 15.549 2.634 22.874 8.493 7.765 8.183 15.335 3.402 22.807 3.762 3.314 5.983 6.73 7.025 10.225" fill="#C5C5C5"/><path d="M349.376 204.252c4.417-43.22 68.31-43.726 73.948-1.167l.106.911.059.086c6.074 8.918 7.6 16.107 3.357 22.773l-.245.374.227.226c6.94 7.004 7.74 14.397 3.244 22.275l-.127.218.257.245c3.043 2.95 5.075 6.078 6.152 9.407l.13.417a1.5 1.5 0 01-2.876.857c-.956-3.207-2.973-6.251-6.187-9.177l-.391-.35-.965-.85.693-1.084c4.794-7.494 4.211-13.992-2.845-20.609l-.306-.283-1.02-.933.846-1.093c4.433-5.724 3.484-11.899-2.141-20.306l-.541-.795-.22-.317-.039-.384c-4.126-40.276-64.035-40.205-68.134-.115l-.107 1.227-.038.523-.356.386c-5.393 5.843-5.402 11.927-.171 18.772l.249.322.965 1.229-1.59 1.148-.625.466-.602.464c-.295.23-.581.461-.858.69l-.542.459-.518.456c-6.325 5.69-6.994 10.957-1.497 17.087l.223.246.797.866-1.875 2.83-.283.437-.541.857c-3.672 5.928-4.9 10.35-4.217 17.502a1.5 1.5 0 01-2.986.285c-.788-8.247.793-13.372 5.222-20.27l.893-1.364-.146-.173c-5.82-7.016-4.872-13.524 1.697-19.855l.523-.493a38.605 38.605 0 012.318-1.966l.362-.281-.067-.094c-5.199-7.395-5.112-14.547.543-21.072l.173-.197.072-.813z" fill="#333" fill-rule="nonzero"/><path d="M376.549 238.826v8.942M397.608 239.773v6.941" stroke="#353535" stroke-width="3.75"/><path d="M370.984 272.936c6.208 2.773 11.619 4.16 16.233 4.16 4.614 0 10.458-1.387 17.53-4.16l-4.536 48.357-26.445 2.152v-12.669l-2.782-37.84z" fill="#E3E3E3"/><path d="M376.549 324.411l-7.883-65.036 7.883-11.607c-2.08.045-3.684.24-4.812.586-1.692.52-3.839 2.706-5.539 4.477-1.7 1.771-3.333 3.68-5.49 4.44-2.157.762-6.512 1.507-10.204 2.104-3.693.598-7.014 2.2-8.433 4.613-1.419 2.413-2.667 11.236-2.667 18.323 0 4.725-.425 17.033-1.276 36.925l17.952 2.32 2.989-18.657-3.543 23.073 21.023-1.56z" stroke="#353535" stroke-width="3" stroke-linejoin="round"/><path d="M376.549 324.411l-7.883-65.036 7.883-11.607c-2.08.045-3.684.24-4.812.586-1.692.52-3.839 2.706-5.539 4.477-1.7 1.771-3.333 3.68-5.49 4.44-2.157.762-6.512 1.507-10.204 2.104-3.693.598-7.014 2.2-8.433 4.613-1.419 2.413-2.667 11.236-2.667 18.323 0 4.725-.425 17.033-1.276 36.925l17.952 2.32 2.989-18.657-3.543 23.073 21.023-1.56z" fill="#32C5FF"/><path d="M376.517 246.268c-2.207.048-3.938.259-5.22.652-1.408.432-2.87 1.558-4.746 3.409l-.78.786-.474.489-1.242 1.301-.438.448-.404.402-.375.359-.35.319-.33.281c-.695.573-1.278.907-1.949 1.143l-.175.06-.385.122c-.136.04-.28.082-.43.123l-.476.126-.52.128-.567.13-.934.2-.679.137-.724.14-1.17.216-1.271.222-1.54.258-1.074.175c-4.302.697-7.868 2.582-9.486 5.334-.38.647-.744 1.658-1.078 2.924l-.151.602-.074.314-.145.651-.139.683-.067.351-.132.723-.125.747-.119.77-.112.788-.106.805-.098.82-.091.834-.084.842-.075.85-.097 1.285-.054.859-.024.43-.04.856c-.012.285-.022.57-.03.853l-.021.845a69.7 69.7 0 00-.007.42l-.014 2.163-.05 2.733-.126 4.61-.18 5.412-.307 8.158-.513 12.516-.09 2.1v.136a1.5 1.5 0 001.307 1.415l16.549 2.14-.442 2.88a1.5 1.5 0 001.594 1.724l21.023-1.56.14-.017a1.5 1.5 0 001.238-1.66l-7.815-64.478 7.567-11.141c.684-1.008-.055-2.369-1.273-2.343zm-2.952 3.222l-6.14 9.042-.08.133a1.5 1.5 0 00-.168.89l7.693 63.476-17.576 1.305 3.25-21.164.016-.145c.14-1.847-2.673-2.24-2.98-.32l-2.752 17.174-15.142-1.957.6-14.704.329-8.978.17-5.467.076-3.092.031-1.763.012-1.609.001-.386.01-.78.02-.79.029-.799.037-.802.046-.806.055-.805.061-.802.07-.798.076-.79.126-1.165.092-.76.148-1.11.105-.716.11-.693.114-.668.118-.64.06-.31.123-.596c.02-.096.042-.191.063-.285l.127-.544c.086-.35.173-.676.262-.974l.133-.425.135-.38c.112-.297.226-.546.34-.739 1.088-1.852 3.874-3.325 7.378-3.892l1.749-.287 1.345-.23 1.299-.23.807-.15.761-.148.716-.145.671-.143.627-.141.583-.14.275-.07.519-.14c.165-.045.324-.092.476-.138l.434-.138c.07-.023.137-.046.202-.07 1.243-.438 2.186-1.022 3.361-2.082l.425-.395.222-.213.463-.46.496-.507 1.283-1.343.732-.752.476-.477c.255-.251.5-.487.737-.705l.459-.414c.965-.848 1.745-1.375 2.316-1.55.324-.1.704-.186 1.14-.258l.248-.04z" fill="#353535" fill-rule="nonzero"/><path d="M399.143 246.714c1.693.372 3.994 1.274 6.902 2.708 4.362 2.15 6.08 7.213 8.408 7.213 2.328 0 19.163 3.16 20.603 4.203 1.44 1.043 7.34 10.963 9.25 16.016.272.718.663 1.894 1.138 3.398.306.972-6.195-.523-5.828.69 3.058 10.118 3.826 34.654 4.738 39.03.793 3.81-1.578 4.324-7.113 1.544l-10.17-22.427-4.72 23.577-21.735-.572 4.132-54.442v-8.586l-5.605-9.644v-2.708z" fill="#32C5FF"/><path d="M428.578 297.599l1.16 2.902 1.122 2.773 1.083 2.644 1.044 2.514.507 1.209.743 1.752.72 1.679.928 2.125.67 1.51.648 1.435.627 1.363.8 1.704.576 1.192.37.755.54 1.07-2.673 1.364-.381-.755-.592-1.199-.615-1.278-.64-1.359-.662-1.439-.455-1.003-.942-2.114-.487-1.11-.75-1.733-.775-1.812-.798-1.893-.821-1.973-.846-2.053-1.058-2.597-5.793 27.028-2.933-.628 6.823-31.833c.31-1.45 2.313-1.618 2.86-.24zm-24.2-51.157c.829.44 1.882 1.142 2.98 1.958l.664.503c.111.085.222.172.333.259l.664.53.328.27.645.541c1.269 1.085 2.397 2.162 3.077 2.974l.16.198c.676.858 1.23 1.348 1.577 1.495l.017.005 5.101.866 3.412.602 2.105.388 1.187.229 1.24.252.416.089 1.174.263.75.175 1.07.263.676.176.646.176.311.088.598.177.565.178.27.089.512.179c1.403.509 2.374 1.03 2.81 1.579l.207.291.536.775a71.467 71.467 0 014.861 8.246 63.42 63.42 0 012.444 5.482l.191.502.2.546c-.14 1.3-.35 2.071-.631 2.316-.282.244-.884.177-1.806-.201l-.316-.906-.15-.415-.285-.756a60.432 60.432 0 00-2.328-5.222 68.489 68.489 0 00-4.354-7.453l-.663-.967-.246-.356h-.009a2.502 2.502 0 00-.163-.091l-.217-.106-.128-.058a14.7 14.7 0 00-1.099-.419l-.547-.181-.295-.093a50.093 50.093 0 00-1.94-.554l-1.067-.274a79.197 79.197 0 00-1.66-.394l-.751-.166-.644-.135-1.278-.253-2.22-.415-1.493-.269-3.478-.606-4.13-.698-.183-.042c-.992-.296-1.942-1.063-2.938-2.276l-.215-.266c-.388-.494-1.055-1.166-1.86-1.895l-.554-.494a44.674 44.674 0 00-.29-.251l-.597-.505-.614-.503c-1.446-1.164-2.953-2.243-3.982-2.788a9.022 9.022 0 00-2.21-.838l-.343-.07.107.162a76.703 76.703 0 015.193 9.25l.392.847a1.5 1.5 0 01.133.552v.143l-1.074 21.986-3.274 43.894-2.992-.224 3.272-43.855 1.053-21.58-.225-.487c-1.66-3.524-3.682-7.022-6.068-10.495l-.557-.802a1.5 1.5 0 01.946-2.336c2.167-.414 4.584-.104 7.05 1.201z" fill="#353535" fill-rule="nonzero"/><path d="M404.2 271.54l1.095 2.792c-7.233 2.836-13.249 4.263-18.078 4.263-4.687 0-10.086-1.343-16.209-4.009l-.636-.28 1.224-2.74c6.03 2.694 11.242 4.03 15.62 4.03 4.262 0 9.717-1.264 16.34-3.806l.644-.25z" fill="#353535" fill-rule="nonzero"/><g transform="translate(361.15 197.954)"><path d="M14.767 53.543l-5.632 8.46 1.705 11.31c9.75 5.166 19.844 5.316 30.285.45.589-5.705.752-9.915.489-12.63-.226-2.335-1.474-4.479-3.744-6.432l-23.103-1.158z" fill="#DDD"/><path d="M56.246 18.389c-2.588 11.779-3.592 38.195-28.451 38.39C2.936 56.974 2.775 31.243.246 19.178c21.518-2.17 35.94-8.303 43.268-18.398.491 1.84.875 3.177 1.152 4.012 2.62 7.905 6.48 12.437 11.58 13.597z" fill="#DDD"/><path d="M43.514.78l.37 1.365.324 1.15.279.936.179.561c2.62 7.905 6.48 12.437 11.58 13.597l-.153.724-.151.757-.225 1.193-.301 1.69-.562 3.18-.264 1.435-.188.974-.197.987-.21.998a96.43 96.43 0 01-.109.502l-.228 1.01a78.216 78.216 0 01-.37 1.525l-.268 1.02-.183.664-.19.664-.099.331-.203.663-.212.66-.109.33-.225.658-.116.327-.24.653a44.56 44.56 0 01-.249.65l-.26.644-.27.64c-.137.32-.28.636-.426.95l-.298.627-.31.62-.322.611a29.53 29.53 0 01-1.804 2.934l-.402.557c-3.954 5.338-9.935 9.139-19.307 9.212-10.018.079-16.025-4.053-19.792-9.805l-.358-.561c-.175-.283-.346-.57-.511-.86l-.324-.585c-.212-.392-.416-.79-.61-1.193l-.288-.608a34.563 34.563 0 01-.275-.615l-.265-.62a37.54 37.54 0 01-.128-.313l-.247-.629-.238-.634-.227-.638a44.631 44.631 0 01-.11-.32l-.213-.645c-.035-.107-.07-.215-.103-.323l-.2-.648-.19-.65-.183-.653-.174-.654-.167-.654-.243-1.007a76.733 76.733 0 01-.335-1.507l-.206-1-.24-1.24-.223-1.227-.168-.97-.313-1.898-.503-3.154-.21-1.269-.14-.814-.143-.785-.147-.756c-.024-.123-.05-.245-.075-.366l.731-.076 1.445-.16c.968-.112 1.92-.233 2.858-.362l1.395-.2c.691-.103 1.375-.21 2.05-.323l1.338-.231c16.15-2.89 27.3-8.572 33.45-17.046zm-1.31 6.068l-.2.194c-8.013 7.675-20.637 12.533-37.79 14.705l-.439.053.149.896.5 3.137.309 1.876.164.948.234 1.285.215 1.11.202.983c.07.329.141.653.212.966l.105.46.238.984c3.222 12.914 9.315 19.431 21.668 19.334 11.673-.091 18.042-6.22 21.712-17.97l.261-.86.252-.878.122-.447.262-.999.18-.723.172-.726.277-1.233.254-1.203.193-.965.184-.952.26-1.41.563-3.187.306-1.717.025-.136-.113-.05c-4.508-2.104-7.95-6.581-10.389-13.23l-.088-.245z" fill="#333" fill-rule="nonzero"/><circle fill="#333" cx="17.201" cy="20.916" r="3.5"/><circle fill="#333" cx="37.501" cy="20.916" r="3.5"/><path d="M17.673 39.229c4.702 12.589 16.635 10.016 17.705.135-1.71.371-5.686 2.048-8.756 2.125-3.542.09-6.65-1.903-8.95-2.26z" fill="#FFF"/><path d="M16.267 39.753c2.393 6.406 6.91 9.862 11.743 9.465 4.634-.381 8.272-4.266 8.86-9.692a1.5 1.5 0 00-1.81-1.628l-.28.066-.313.083-.357.103-2.566.809-.77.231c-.616.18-1.171.325-1.704.446-.95.215-1.779.336-2.486.354-1.362.034-2.65-.254-4.558-.933l-1.902-.697-.338-.118c-.725-.247-1.318-.408-1.883-.496a1.5 1.5 0 00-1.636 2.007zm17.122 1.768l-.05.15c-2.047 5.756-8.628 6.323-12.621.303l-.17-.262.08.03c2.441.894 4.112 1.295 6.032 1.247.93-.024 1.945-.172 3.073-.427.712-.162 1.445-.36 2.273-.608l1.383-.433zM25.753 25.96l-2.09 2.154.587.58.35.358.315.336.283.315.25.296.22.276.188.258c.78 1.121.636 1.72-.19 2.186l-.194.102-.106.05 1.236 2.733c4.104-1.855 3.592-5.141-.415-9.212l-.434-.431z" fill="#333" fill-rule="nonzero"/></g><path d="M417.705 217.435l-1.784-1.01-3.32 15.745h1.849c3.963 0 7.1-3.529 7.1-7.8 0-2.935-1.49-5.6-3.845-6.935zm.164 4.29l.095.175c.374.727.586 1.574.586 2.47l-.005.23c-.066 1.667-.857 3.09-1.992 3.887l-.128.085 1.444-6.847z" fill="#333" fill-rule="nonzero"/><g filter="url(#d)" stroke-linecap="round" transform="translate(336 171)"><g stroke="#333" stroke-width="2.304"><path d="M85.427 110.478c-.67.638-1.127 1.931-1.127 3.423 0 1.545.491 2.878 1.2 3.49M72.901 110.478c.67.638 1.127 1.931 1.127 3.423 0 1.545-.491 2.878-1.2 3.49M76.357 109.326c.67.851 1.127 2.575 1.127 4.564 0 2.06-.491 3.837-1.2 4.652M81.97 109.326c-.668.851-1.126 2.575-1.126 4.564 0 2.06.491 3.837 1.2 4.652"/></g></g></g><path d="M339.21 345.504c52.797-4.614 98.182-7.98 136.87-10.513C614.229 325.945 667 327.522 667 320.86c0-8.526-166.25-3.508-332.5-3.508S2 312.335 2 320.86s95.888 45.73 337.21 24.643z" fill="#EFEFEF"/><path d="M163.161 326.5l-.052.108A3.5 3.5 0 01160 328.5h-15l-.192-.005a3.5 3.5 0 01-2.917-1.887l-.053-.108h21.323z" fill="#FFF" fill-rule="nonzero"/><g fill="#C5C5C5" fill-rule="nonzero"><path d="M582.315 310.34H481.463a5.963 5.963 0 00-5.963 5.963v3.57a5.963 5.963 0 005.963 5.962h100.852a5.962 5.962 0 005.963-5.963v-3.57a5.962 5.962 0 00-5.963-5.962zm-100.852 3h100.852a2.962 2.962 0 012.963 2.963v3.57a2.962 2.962 0 01-2.963 2.962H481.463a2.962 2.962 0 01-2.963-2.963v-3.57a2.963 2.963 0 012.963-2.962z"/><path d="M540.368 317.195a1.785 1.785 0 110 3.57h-16.065a1.785 1.785 0 110-3.57h16.065z"/><path d="M584.993 316.302v2.678H478.785v-2.678z"/></g><path d="M220.535 281H307.2a4 4 0 013.996 4.18l-1.811 40.045v7.54H218.35v-7.488l-1.811-40.097a4 4 0 013.996-4.18z" fill="#FFF" fill-rule="nonzero"/><path fill="#FFF" fill-rule="nonzero" d="M218.35 325.625h91.035v7.14H218.35z"/><path d="M307.2 279.5h-86.665l-.248.006a5.5 5.5 0 00-5.247 5.742l1.812 40.097-.002 8.92h94.035v-9.04l1.81-39.977.005-.248a5.5 5.5 0 00-5.5-5.5zm0 3a2.5 2.5 0 012.5 2.5l-.003.113-1.81 40.044-.003 6.107h-88.035l.001-5.987-1.813-40.164a2.5 2.5 0 012.385-2.61l.113-.003H307.2z" fill="#C5C5C5" fill-rule="nonzero"/><path d="M310.885 324.125H216.85v10.14h94.035v-10.14zm-3 2.999v4.14H219.85v-4.14h88.035z" fill="#C5C5C5" fill-rule="nonzero"/><g><path d="M438.04 278.376l5.28 43.56h19.14l5.28-43.56h-29.7zm3.386 3h22.929l-4.553 37.56h-13.823l-4.553-37.56z" fill="#C5C5C5" fill-rule="nonzero"/><path d="M462.063 287.79c-5.585-2.165-12.061 5.694-18 0l3.482 29.612h11.119l3.4-29.612z" fill="#E5F7FF"/><path fill="#C5C5C5" fill-rule="nonzero" d="M435.884 268.5v3h8.091l7.77 41.952 2.95-.546-8.225-44.406z"/><path d="M450.612 291.725l3.785-2.65a3 3 0 014.178.737l2.65 3.785a3 3 0 01-.737 4.178l-3.785 2.65a3 3 0 01-4.178-.737l-2.65-3.785a3 3 0 01.737-4.178zm1.72 2.458l2.65 3.784 3.785-2.65-2.65-3.784-3.784 2.65z" fill="#C5C5C5" fill-rule="nonzero"/><path d="M445.506 300.643l3.209-3.323a3 3 0 014.242-.074l3.323 3.209a3 3 0 01.074 4.242l-3.209 3.323a3 3 0 01-4.242.074l-3.323-3.209a3 3 0 01-.074-4.242zm2.158 2.084l3.323 3.21 3.21-3.324-3.324-3.21-3.21 3.324z" fill="#C5C5C5" fill-rule="nonzero"/></g><path d="M63.732 323.437l43.266-1.824a.5.5 0 01.397.17l3.128 3.557a.5.5 0 01-.355.83l-43.266 1.823a.5.5 0 01-.396-.169l-3.128-3.557a.5.5 0 01.354-.83z" fill="#FFF" fill-rule="nonzero"/><path d="M106.872 318.616l-43.266 1.824a3.5 3.5 0 00-2.481 5.807l3.128 3.558a3.5 3.5 0 002.775 1.186l43.267-1.824a3.5 3.5 0 002.48-5.808l-3.127-3.557a3.5 3.5 0 00-2.776-1.186zm-43.14 4.82l43.266-1.823a.5.5 0 01.397.17l3.128 3.557a.5.5 0 01-.355.83l-43.266 1.823a.5.5 0 01-.396-.169l-3.128-3.557a.5.5 0 01.354-.83z" fill="#C5C5C5" fill-rule="nonzero"/><g fill-rule="nonzero"><path d="M336.019 319.612l42.938 1.81a3.5 3.5 0 012.31 5.99l-3.704 3.651a3.5 3.5 0 01-2.605 1.005l-42.938-1.81a3.5 3.5 0 01-2.31-5.99l3.704-3.651a3.5 3.5 0 012.605-1.005zm42.811 4.807l-42.938-1.81a.5.5 0 00-.372.144l-3.704 3.652a.5.5 0 00.33.855l42.938 1.81a.5.5 0 00.372-.143l3.704-3.652a.5.5 0 00-.33-.856z" fill="#C5C5C5"/><path d="M378.83 324.42l-42.938-1.81a.5.5 0 00-.372.143l-3.704 3.652a.5.5 0 00.33.855l42.938 1.81a.5.5 0 00.372-.143l3.704-3.652a.5.5 0 00-.33-.856z" fill="#FFF"/></g><circle fill="#C5C5C5" cx="67.5" cy="325.5" r="1.5"/><circle fill="#C5C5C5" cx="373.5" cy="326.5" r="1.5"/><g fill="#C5C5C5" fill-rule="nonzero"><path d="M139.334 306.5h25.332l-2.157 19.958-21.072.085-2.103-20.043zm3.332 3l1.475 14.066 15.7.136 1.494-14.202h-18.669zM154.062 296.488c-1.393 1.49-.972 3.167.97 4.699l.193.147c1.337.999 1.374 1.818.062 2.96l-.151.128.955 1.156c2.132-1.76 2.218-3.7.208-5.309l-.177-.137c-1.413-1.054-1.667-1.788-1.047-2.527l.082-.093-1.095-1.024zM150.37 293.465c-2.574 2.528-2.834 4.989-.628 6.998l.17.15c1.629 1.389 1.754 2.481.463 3.698l-.139.127.993 1.124c2.095-1.85 2.012-3.969-.158-5.928l-.186-.163c-1.598-1.363-1.53-2.821.354-4.753l.182-.183-1.051-1.07z"/><path d="M140.947 310.5a5.196 5.196 0 00-5.196 5.196l.003.17.012.232a5.781 5.781 0 005.542 5.398l.227.004H142v-3h-.465a2.781 2.781 0 01-2.758-2.425l-.017-.173-.004-.062a2.196 2.196 0 012.035-2.334l.156-.006v-3zM166.5 323.5h-28v1.5a6.5 6.5 0 006.5 6.5h15a6.5 6.5 0 006.5-6.5v-1.5zm-3.339 3l-.052.108A3.5 3.5 0 01160 328.5h-15l-.192-.005a3.5 3.5 0 01-2.917-1.887l-.053-.108h21.323z"/></g><path fill="#FFF" fill-rule="nonzero" d="M161.335 309.5l-1.475 14.066-15.7.136-1.494-14.202z"/></g></svg>