<?xml version="1.0" encoding="UTF-8"?>
<svg width="167px" height="114px" viewBox="0 0 167 114" version="1.1" xmlns="http://www.w3.org/2000/svg" xmlns:xlink="http://www.w3.org/1999/xlink">
    <title>Artboard</title>
    <g id="Artboard" stroke="none" stroke-width="1" fill="none" fill-rule="evenodd">
        <g id="Group-78-Copy-2" transform="translate(41.000000, 3.000000)">
            <g id="Group-63">
                <g id="Group-60" transform="translate(0.000000, 10.640000)">
                    <path d="M44.8983194,0.426520212 L55.6893185,0.443354643 C58.159526,0.447208275 60.1599994,2.46644613 60.1599994,4.95597062 L60.1599994,69.8510958 C60.1599994,72.3433477 58.1553042,74.3637172 55.6823874,74.3637172 L4.6376113,74.3637172 C2.16469451,74.3637172 0.159999361,72.3433477 0.159999361,69.8510958 L0.159999361,4.87633853 C0.159999361,2.38408656 2.16469451,0.363717151 4.6376113,0.363717151 L16.6226758,0.38240897" id="Path" fill="#FFFFFF"></path>
                    <path d="M4.63995069,-1.13628102 L16.6250152,-1.11758921 L16.6203364,1.88240715 L4.6376113,1.86371898 C3.05438604,1.86371898 1.75580044,3.11547024 1.66506374,4.69906473 L1.65999936,4.87633853 L1.65999936,69.8510958 C1.65999936,71.4580092 2.90204121,72.7671521 4.46291564,72.8586126 L4.6376113,72.863719 L55.6823874,72.863719 C57.2656127,72.863719 58.5641983,71.6119641 58.654935,70.0283696 L58.6599994,69.8510958 L58.6599994,4.95597062 C58.6599994,3.3508115 57.420563,2.04242205 55.8614787,1.94871893 L55.6869784,1.94335282 L44.8959793,1.92651839 L44.9006594,-1.07347796 L55.6916586,-1.05664353 C58.9169916,-1.05161187 61.5384,1.52050919 61.655889,4.7309733 L61.6599994,4.95597062 L61.6599994,69.8510958 C61.6599994,73.0937602 59.1065059,75.7409157 55.9066574,75.859566 L55.6823874,75.863719 L4.6376113,75.863719 C1.40873119,75.863719 -1.21814589,73.2902585 -1.33588159,70.0763376 L-1.34000064,69.8510958 L-1.34000064,4.87633853 C-1.34000064,1.63367415 1.2134928,-1.01348141 4.41552481,-1.13213003 L4.63995069,-1.13628102 Z" id="Path" fill="#3E4952" fill-rule="nonzero"></path>
                    <g id="Icon-/-Notifications-/-V-blue" transform="translate(11.000000, 21.360000)" fill="#049BDE" fill-rule="nonzero">
                        <polygon id="Path-2" points="8.93933983 -1.06066017 11.0606602 1.06066017 2.91836918 9.20295116 -1.08298231 5.02762787 1.08298231 2.95191178 2.964 4.914"></polygon>
                    </g>
                    <g id="Icon-/-Notifications-/-V-blue-Copy" transform="translate(11.000000, 38.360000)" fill="#049BDE" fill-rule="nonzero">
                        <polygon id="Path-2" points="8.93933983 -1.06066017 11.0606602 1.06066017 2.91836918 9.20295116 -1.08298231 5.02762787 1.08298231 2.95191178 2.964 4.914"></polygon>
                    </g>
                    <g id="Icon-/-Notifications-/-V-blue-Copy-2" transform="translate(11.000000, 54.360000)" fill="#049BDE" fill-rule="nonzero">
                        <polygon id="Path-2" points="8.93933983 -1.06066017 11.0606602 1.06066017 2.91836918 9.20295116 -1.08298231 5.02762787 1.08298231 2.95191178 2.964 4.914"></polygon>
                    </g>
                    <polygon id="Path-5-Copy-4" fill="#3E4952" fill-rule="nonzero" points="27.0027112 23.3401205 49.0027112 23.3798848 48.9972888 26.3798799 26.9972888 26.3401156"></polygon>
                    <polygon id="Path-5-Copy-5" fill="#3E4952" fill-rule="nonzero" points="38.5 56.3600002 38.5 59.3600002 27 59.3600002 27 56.3600002"></polygon>
                    <polygon id="Path-5-Copy-6" fill="#3E4952" fill-rule="nonzero" points="43.5 40.3600002 43.5 43.3600002 27 43.3600002 27 40.3600002"></polygon>
                </g>
                <path d="M30.6399994,9.09494702e-13 C34.2723878,9.09494702e-13 37.2316536,2.88198091 37.3559354,6.48408151 L37.3599992,6.71999987 L46.959999,6.71999987 L46.959999,20.1599996 L14.3199997,20.1599996 L14.3199997,6.71999987 L23.9199995,6.71999987 C23.9199995,3.00864642 26.9286459,9.09494702e-13 30.6399994,9.09494702e-13 Z M30.6399994,3 C28.6517743,3 27.0278559,4.55978211 26.9251559,6.52243457 L26.9199995,6.71999987 L26.9199995,9.71999987 L17.319,9.719 L17.319,17.159 L43.959,17.159 L43.959,9.719 L34.4112302,9.71999987 L34.3577195,6.58752776 C34.2888267,4.59078535 32.6455353,3 30.6399994,3 Z" id="Combined-Shape" fill="#3E4952" fill-rule="nonzero"></path>
            </g>
            <g id="Group-2-Copy" transform="translate(60.000000, 42.000000)">
                <polygon id="Rectangle-8-Copy-14" fill="#00A1E7" points="0.8 6.48 51.8 6.48 51.8 19.92 0.8 19.92"></polygon>
                <polyline id="Path" stroke="#3E4952" stroke-width="2.68" fill="#FFFFFF" points="1.64 18.12 1.64 56.0372656 51.204375 56.0372656 50.3183594 18.7421875"></polyline>
                <path d="M50.55,7.73 L50.55,18.67 L2.05,18.67 L2.05,7.73 L50.55,7.73 Z" id="Rectangle-8-Copy-14" stroke="#3E4952" stroke-width="2.5"></path>
                <path d="M57.92,6.4 L57.92,57.4 L49.52,57.4 L49.52,6.4 L57.92,6.4 Z M55.419,8.899 L52.019,8.899 L52.019,54.899 L55.419,54.899 L55.419,8.899 Z" id="Rectangle-8-Copy-15" fill="#3E4952" fill-rule="nonzero"></path>
                <path d="M10.9273061,0.941783936 C14.2789108,0.942426063 16.9990766,3.64769441 16.99972,6.98778454 C17.0003484,10.2523315 14.4028703,12.9097871 11.1562139,13.0282952 L10.9286742,13.0324195 L10.9291529,10.5324195 C12.9031104,10.5327975 14.5000966,8.94456085 14.4997199,6.98826598 C14.4993431,5.03159442 12.9011581,3.4421622 10.9268273,3.44178394 C9.01654579,3.44141821 7.4593072,4.92882888 7.36116938,6.79780872 L7.35626016,6.98593763 L4.85626016,6.98641898 C4.8556171,3.64595232 7.5753279,0.941142195 10.9273061,0.941783936 Z" id="Oval-4-Copy-15" fill="#3E4952" fill-rule="nonzero" transform="translate(10.927990, 6.987102) rotate(-92.000000) translate(-10.927990, -6.987102) "></path>
                <path d="M25.0310866,0.941783936 C28.3826913,0.942426063 31.1028571,3.64769441 31.1035006,6.98778454 C31.104129,10.2523315 28.5066509,12.9097871 25.2599945,13.0282952 L25.0324548,13.0324195 L25.0329335,10.5324195 C27.006891,10.5327975 28.6038772,8.94456085 28.6035005,6.98826598 C28.6031236,5.03159442 27.0049387,3.4421622 25.0306078,3.44178394 C23.1203264,3.44141821 21.5630878,4.92882888 21.46495,6.79780872 L21.4600407,6.98593763 L18.9600407,6.98641898 C18.9593977,3.64595232 21.6791085,0.941142195 25.0310866,0.941783936 Z" id="Oval-4-Copy-16" fill="#3E4952" fill-rule="nonzero" transform="translate(25.031771, 6.987102) rotate(-92.000000) translate(-25.031771, -6.987102) "></path>
                <path d="M39.6990184,0.941783936 C43.0506231,0.942426063 45.7707889,3.64769441 45.7714324,6.98778454 C45.7720608,10.2523315 43.1745827,12.9097871 39.9279263,13.0282952 L39.7003866,13.0324195 L39.7008653,10.5324195 C41.6748228,10.5327975 43.271809,8.94456085 43.2714323,6.98826598 C43.2710554,5.03159442 41.6728705,3.4421622 39.6985396,3.44178394 C37.7882582,3.44141821 36.2310196,4.92882888 36.1328818,6.79780872 L36.1279725,6.98593763 L33.6279725,6.98641898 C33.6273295,3.64595232 36.3470403,0.941142195 39.6990184,0.941783936 Z" id="Oval-4-Copy-17" fill="#3E4952" fill-rule="nonzero" transform="translate(39.699702, 6.987102) rotate(-92.000000) translate(-39.699702, -6.987102) "></path>
                <ellipse id="Oval-18-Copy-6" fill="#3E4952" cx="19.2258265" cy="31.7814711" rx="2.5386805" ry="2.55269752"></ellipse>
                <ellipse id="Oval-18-Copy-7" fill="#3E4952" cx="32.7654559" cy="31.7814711" rx="2.5386805" ry="2.55269752"></ellipse>
                <path d="M56.1780919,32.4382321 L57.4056867,32.6738399 C61.6913057,33.4963634 64.4578824,34.9968498 65.6108008,37.315817 C66.4442753,38.9922582 65.6397537,40.5132114 63.2891804,42.028072 L62.8710972,42.2877306 C62.5101022,42.5041094 62.1176624,42.7205382 61.6940458,42.9374523 L61.1707582,43.1980103 L60.6176438,43.4592014 C60.5229782,43.5027954 60.4270741,43.5464226 60.3299337,43.5900868 L59.7322721,43.8525414 L59.105041,44.1160475 L58.4483435,44.3807723 L57.7622823,44.6468829 L57.0469606,44.9145468 C56.9253076,44.9592961 56.8024397,45.0041172 56.6783591,45.0490134 L55.9193393,45.3193205 L55.1313163,45.591599 L54.3143928,45.866016 L53.1278677,46.2592821 L52.3413356,43.8862319 L53.5278607,43.4929658 C53.8400265,43.3895005 54.1450924,43.2866784 54.4430435,43.1845133 L55.3155381,42.8800025 L56.145256,42.5795159 L56.932109,42.2831357 L57.6760084,41.9909441 C59.4819916,41.2657697 60.8844572,40.5806358 61.8771884,39.9413289 C62.615924,39.4655922 63.0886741,39.0386039 63.2977564,38.7019226 C63.4015935,38.5347154 63.4051126,38.494971 63.3722035,38.428778 C62.6700194,37.0164127 60.6747386,35.8986781 57.3011995,35.202051 L56.934471,35.1290295 L55.7068762,34.8934216 L56.1780919,32.4382321 Z" id="Line-21-Copy-15" fill="#3E4952" fill-rule="nonzero"></path>
                <path d="M27.9555391,61 L28.0122002,63.4993578 L24.8760503,63.5679291 L22.4495101,63.6096653 L20.5061357,63.6290416 L19.9655912,63.6305295 C18.8278525,63.631072 17.6740218,63.6454858 16.5041029,63.6737757 L15.3288214,63.7066911 L14.0794528,63.7464175 L14,61.2476804 L15.2493686,61.207954 C16.4493938,61.1697966 17.6334668,61.1457381 18.801591,61.1357832 L21.7263928,61.1186952 L23.5655409,61.0918538 L26.7058602,61.0283305 L27.9555391,61 Z" id="Line-21-Copy-16" fill="#3E4952" fill-rule="nonzero" transform="translate(21.006100, 62.373209) rotate(-85.000000) translate(-21.006100, -62.373209) "></path>
                <path d="M36.3268523,61.0000012 L37.2561364,61.005411 L37.9406152,61.0148219 L39.4656551,61.0475842 L40.7461722,61.0843469 L42.6361128,61.1496077 L43.8852407,61.1962934 L43.7918693,63.6945492 L41.1217188,63.5977314 L39.0150726,63.5371738 L37.9083498,63.5146275 L36.6164882,63.5006399 L36.3263735,63.500012 C35.0364108,63.499765 33.6436653,63.5374817 32.1484444,63.6132637 L31.3922958,63.6543272 L30.1443821,63.7265183 L30,61.230691 L31.2479136,61.1584999 C33.0785767,61.0525972 34.7713935,60.9997142 36.3268523,61.0000012 Z" id="Line-21-Copy-17" fill="#3E4952" fill-rule="nonzero" transform="translate(36.942620, 62.363259) rotate(-92.000000) translate(-36.942620, -62.363259) "></path>
            </g>
        </g>
        <path d="M103.007557,71.9543257 L104.761812,74.387963 L103.544993,75.2650904 C100.178927,77.6914738 97.354572,78.9344984 94.9830452,78.9288674 C92.7541206,78.9235154 89.6159535,77.7922261 85.4397356,75.5606848 L83.6859009,74.6099496 L85.1178256,71.9737418 L86.4359295,72.6897042 C87.6316337,73.3391819 88.7295334,73.8901373 89.725778,74.3433384 L90.3748388,74.6309989 C92.3822404,75.4961172 93.932773,75.9263268 94.9902078,75.9288568 C96.5324397,75.9325312 98.7149684,74.9982273 101.45879,73.0678795 L101.790738,72.8314531 L103.007557,71.9543257 Z" id="Line-21-Copy-18" fill="#3E4952" fill-rule="nonzero" transform="translate(94.223856, 75.441597) rotate(30.000000) translate(-94.223856, -75.441597) "></path>
    </g>
</svg>