<?xml version="1.0" encoding="UTF-8"?>
<svg width="398px" height="273px" viewBox="0 0 398 273" version="1.1" xmlns="http://www.w3.org/2000/svg" xmlns:xlink="http://www.w3.org/1999/xlink">
    <title>teams 01</title>
    <defs>
        <circle id="path-1" cx="36" cy="36" r="36"></circle>
        <circle id="path-3" cx="34.5" cy="34.5" r="34.5"></circle>
        <circle id="path-5" cx="34.5" cy="34.5" r="34.5"></circle>
        <circle id="path-7" cx="34.5" cy="34.5" r="34.5"></circle>
        <circle id="path-9" cx="34.5" cy="34.5" r="34.5"></circle>
    </defs>
    <g id="teams-01" stroke="none" stroke-width="1" fill="none" fill-rule="evenodd">
        <path d="M283.5,2 C304.210678,2 321,18.7893219 321,39.5 C321,60.2106781 304.210678,77 283.5,77 C262.789322,77 246,60.2106781 246,39.5 C246,18.7893219 262.789322,2 283.5,2 Z M283.5,5 C264.446176,5 249,20.4461761 249,39.5 C249,58.5538239 264.446176,74 283.5,74 C302.553824,74 318,58.5538239 318,39.5 C318,20.4461761 302.553824,5 283.5,5 Z" id="Oval" fill="#E0E0E0" fill-rule="nonzero"></path>
        <g id="Group-7-Copy-2" transform="translate(247.131203, 2.203679)">
            <mask id="mask-2" fill="white">
                <use xlink:href="#path-1"></use>
            </mask>
            <g id="Mask"></g>
            <g mask="url(#mask-2)" id="Group-4">
                <g transform="translate(13.500000, 18.500000)">
                    <path d="M22.1041419,-2.27373675e-13 C13.6762201,-2.27373675e-13 9.80858093,2.35759278 6.1133069,8.8017348 L5.77639045,9.40850599 L4.64226429,11.5338499 L2.22400818,16.1499561 C-0.427974931,21.0929724 -0.612962552,26.1432399 1.16312928,31.0320431 C2.46453745,34.6142501 4.73070731,37.8577228 7.28146918,40.3747319 L8.56695438,41.643207 L9.577965,40.1467583 L9.62484686,40.0827251 C9.71319299,39.9703018 9.84307445,39.8434643 10.0137443,39.703 L10.2380786,39.5279523 L10.501283,39.3401253 C10.5954643,39.2754199 10.6960761,39.2086351 10.8030706,39.1398212 L11.1431544,38.9273426 L11.5212477,38.7029917 L12.159028,38.3448664 C12.234572,38.3036663 12.3116698,38.262003 12.3903154,38.2198828 L12.8807162,37.9617295 L13.4079791,37.6929134 L13.9718172,37.4137371 L14.5719438,37.1245027 L15.2080721,36.8255128 L16.22914,36.3593976 L16.9540174,36.0373416 L17.7138925,35.7065883 L18.218506,35.49 L27.267506,35.49 L27.0662699,35.4287187 C30.8913758,36.5610659 34.3251785,38.2552485 37.3755446,40.5127503 L38.6341981,41.4442491 L39.7545616,39.7833978 L40.2208288,39.0723918 C43.988892,33.2307887 44.8309863,29.4110877 43.6064105,22.7920317 L43.4495964,21.9839995 C43.4218257,21.8469851 43.3932421,21.7087739 43.3638524,21.5693272 L43.177897,20.717513 C43.1453106,20.5729702 43.111932,20.4271148 43.077768,20.2799083 L42.8634136,19.3801465 L42.630539,18.4461055 L42.3794743,17.4759338 L42.1105494,16.4677802 L41.8858743,15.6637332 C38.8282843,5.08075111 33.267954,-2.27373675e-13 22.1041419,-2.27373675e-13 Z M22.1041419,3 C31.5052505,3 36.0356848,6.8711035 38.7690278,15.7091818 L38.9958052,16.46791 C39.0329114,16.5963434 39.0696782,16.7257684 39.1061143,16.8561878 L39.3459506,17.7397669 L39.5958831,18.6873412 L39.8281038,19.5951577 L40.0423035,20.4652578 C40.0764846,20.6072448 40.1099018,20.7477454 40.1425489,20.8868021 L40.3291373,21.7041549 L40.4969317,22.4888947 C41.7105207,28.3854325 41.2398335,31.5865579 38.4577896,36.2317601 L38.0817549,36.8461857 L37.864506,37.189 L37.4580119,36.9186428 C34.7565234,35.1590873 31.8049165,33.7736242 28.6068925,32.7629518 L27.7094113,32.4904174 L17.6094101,32.4904174 L16.452705,32.9829601 L15.586818,33.3598687 L14.7633748,33.7263775 L13.9820705,34.0828077 L13.2426005,34.4294804 L12.5446602,34.7667169 C12.4317807,34.8221545 12.3206189,34.8772122 12.2111685,34.9318969 L11.5749514,35.2555811 L10.9795024,35.570632 L10.4245167,35.8773707 C10.3353741,35.9278189 10.2479048,35.9779342 10.1621024,36.0277233 L9.66724043,36.3225959 L9.21208018,36.6099592 C8.9943747,36.7518171 8.7914431,36.8909794 8.60311401,37.0276269 L8.38050596,37.193 L8.35426667,37.1636126 C3.36557552,31.6882877 1.18638466,24.793749 4.68775516,17.9123111 L7.6153758,12.3286427 L8.31044859,11.0279534 L8.65111004,10.4080342 L8.71578794,10.2940794 C8.99906907,9.80006901 9.28008971,9.3361268 9.56221003,8.90082168 L9.9014973,8.39210974 C12.6801665,4.34839038 15.6935319,3 22.1041419,3 Z" id="Path-7" fill="#3E4952" fill-rule="nonzero"></path>
                    <path d="M26.5089935,11.6258096 L25.3275563,8.33920878 L23.757535,11.4589158 C21.2501712,16.4411672 16.6333499,18.7346282 9.61068383,18.3674078 L9.04488671,18.3681261 L7.55525521,18.3766501 L7.55343249,19.8984138 C7.55343249,28.0232527 14.1773917,34.6043151 22.3436056,34.6043151 C30.2772867,34.6043151 36.7920589,28.3799035 37.1205387,20.5205845 L37.1847128,18.9851333 L35.6481575,18.9581775 C31.2483949,18.8809927 28.2702087,16.5252754 26.5089935,11.6258096 Z M24.877506,15.331 L25.0358468,15.6164896 C27.0116646,19.1011404 29.8808159,21.1863519 33.5738703,21.7821259 L33.972506,21.84 L33.9697138,21.8571903 C33.0309164,27.4012795 28.1694464,31.6043151 22.3436056,31.6043151 L22.0438661,31.6006074 C16.2664574,31.4575265 11.5236336,27.1897384 10.6851322,21.6552971 L10.649506,21.402 L10.8158834,21.4051673 C16.9517101,21.4616585 21.6571259,19.4909709 24.7462083,15.5057584 L24.877506,15.331 Z" id="Combined-Shape" fill="#3E4952" fill-rule="nonzero"></path>
                    <path d="M8.95076257,33.796321 L8.95076257,39.9866673 C8.95076257,46.4081692 14.2055255,51.6325304 20.7495649,51.7917601 L21.0572459,51.7954994 L25.6913598,51.7954994 C32.2747209,51.7954994 37.6307663,46.6699306 37.7940095,40.2867837 L37.7978431,39.9866673 L37.7978431,33.796321 L40.8743028,33.796321 L40.8743028,39.9866673 C40.8743028,48.0609524 34.2498487,54.6260534 26.0130778,54.7930622 L25.6913598,54.796321 L21.0572459,54.796321 C12.7794419,54.796321 6.04886212,48.3347364 5.87764374,40.3004755 L5.87430283,39.9866673 L5.87430283,33.796321 L8.95076257,33.796321 Z" id="Rectangle-36-Copy-3" fill="#3E4952" fill-rule="nonzero" transform="translate(23.374303, 44.296321) rotate(180.000000) translate(-23.374303, -44.296321) "></path>
                </g>
            </g>
        </g>
        <path d="M208.131203,126.703679 C228.841881,126.703679 245.631203,109.914357 245.631203,89.203679 C245.631203,68.4930009 228.841881,51.703679 208.131203,51.703679 C187.420525,51.703679 170.631203,68.4930009 170.631203,89.203679 C170.631203,109.914357 187.420525,126.703679 208.131203,126.703679 Z" id="Oval-Copy-3" fill="#F6F6F6"></path>
        <path d="M208.430011,123.184031 C207.356771,123.184031 206.296313,123.121685 205.251273,123 L205,125.80138 C206.135125,125.933554 207.279486,126 208.433939,126 C208.623005,126 208.811594,125.998158 209,125.994557 L208.958259,123.17899 C208.782529,123.182346 208.606443,123.184031 208.430011,123.184031 Z M217.261949,122 C215.872191,122.393133 214.449778,122.699717 213,122.914067 L213.394824,126 C214.951949,125.769778 216.489131,125.43967 218,125.012247 L217.261949,122 Z M201,122.201775 C199.616566,121.882547 198.264071,121.480147 196.947834,121 L196,123.70124 C197.430079,124.22293 198.891938,124.656839 200.379069,125 L201,122.201775 Z M224.70123,119 C223.508685,119.607437 222.273147,120.149931 221,120.622429 L222.000901,123 C223.371228,122.491444 224.706467,121.905901 226,121.247018 L224.70123,119 Z M193,120.284095 C191.78699,119.600385 190.615678,118.836983 189.491497,118 L188,120.533699 C189.21751,121.440114 190.482545,122.263883 191.788519,123 L193,120.284095 Z M231.172142,114 C230.167912,114.957806 229.108681,115.853348 228,116.680807 L229.575976,119 C230.771214,118.107904 231.914677,117.141437 233,116.106296 L231.172142,114 Z M186,114.882945 C184.950165,113.982556 183.954568,113.019676 183.01885,112 L181,113.88827 C182.010243,114.989137 183.08487,116.028383 184.217736,117 L186,114.882945 Z M236.621332,108 C235.815356,109.125006 234.939626,110.201866 234,111.225052 L236.170097,113 C237.186019,111.893755 238.131185,110.731097 239,109.51844 L236.621332,108 Z M181,109.41714 C180.128662,108.325443 179.327618,107.184576 178.602892,106 L176,107.309979 C176.78067,108.585978 177.645247,109.818169 178.588519,111 L181,109.41714 Z M240.561896,101 C240.11145,102.290333 239.589116,103.544136 239,104.756035 L241.31244,106 C241.951603,104.685101 242.515304,103.330079 243,101.941552 L240.561896,101 Z M176,101.957371 C175.483614,100.674439 175.041249,99.3535379 174.678216,98 L172,98.7227101 C172.390419,100.178465 172.867669,101.606413 173.428603,103 L176,101.957371 Z M242.611592,93 C242.477842,94.4713312 242.272533,95.9163665 242,97.3298218 L244.339245,98 C244.635543,96.4633518 244.856406,94.9020579 245,93.322438 L242.611592,93 Z M174,93.6482108 C173.809839,92.4532164 173.695213,91.235744 173.660706,90 L171,90.0620865 C171.036975,91.3868544 171.15956,92.7011228 171.366221,94 L174,93.6482108 Z M242,85.3144912 C242.160799,86.4472955 242.253574,87.5993663 242.274499,88.7672418 L242.276151,89 L245,88.9789178 C244.987025,87.6413171 244.886571,86.3133925 244.700109,85 L242,85.3144912 Z M174,81.6254493 L171.606169,81 C171.326538,82.5534894 171.12389,84.1305282 171,85.7248404 L173.438789,86 C173.554227,84.5144647 173.742757,83.0545228 174,81.6254493 Z M240,77.0017682 C240.501326,78.2990391 240.927025,79.6335596 241.271733,81 L244,80.3197777 C243.629437,78.8509607 243.170399,77.4088562 242.625956,76 L240,77.0017682 Z M177,74.2060355 L174.640042,73 C174.015258,74.3296649 173.467422,75.6983176 173,77.0993521 L175.482114,78 C175.916565,76.6978006 176.424241,75.4313582 177,74.2060355 Z M236,69.5459185 C236.857281,70.6507854 237.642967,71.8039615 238.351002,73 L241,71.730563 C240.237333,70.4422259 239.389239,69.1965155 238.460845,68 L236,69.5459185 Z M182,66.737331 L179.784588,65 C178.782272,66.1212647 177.852233,67.297779 177,68.5230919 L179.421204,70 C180.211794,68.8633391 181.073355,67.7739447 182,66.737331 Z M231,63.0780172 C232.037942,63.9924574 233.020646,64.968343 233.942449,66 L236,64.1542821 C235.004855,63.0405445 233.94403,61.987094 232.823623,61 L231,63.0780172 Z M188,61.2786258 L186.383914,59 C185.20079,59.9082808 184.070709,60.8895756 183,61.938119 L184.865727,64 C185.856416,63.0298272 186.903029,62.1207723 188,61.2786258 Z M224,58.669123 C225.201129,59.3698456 226.359755,60.1488276 227.470438,61 L229,58.5171678 C227.797216,57.5954179 226.545755,56.7546654 225.252189,56 L224,58.669123 Z M195,57.3360408 L193.95794,55 C192.600207,55.5248732 191.278687,56.1253412 190,56.797686 L191.33659,59 C192.515745,58.3799843 193.738679,57.8236585 195,57.3360408 Z M216,55.7458957 C217.3708,56.0842308 218.709931,56.5040573 220.01207,57 L221,54.3551085 C219.58555,53.8164197 218.138222,53.3637023 216.664545,53 L216,55.7458957 Z M203,55.0282931 L202.561639,52 C201.018028,52.2527878 199.495348,52.6036491 198,53.049939 L198.777991,56 C200.153764,55.5894107 201.562865,55.2636301 203,55.0282931 Z M208,54.7554694 C209.254349,54.7554694 210.491267,54.8385372 211.706556,55 L212,52.2639567 C210.679134,52.0884658 209.344189,52 208,52 L208,54.7554694 Z M208,54.9781113 L207.999698,52 C207.665824,52.0000619 207.33256,52.0077068 207,52.0229049 L207.073569,55 C207.232832,54.9927251 207.392441,54.9873113 207.552385,54.9837739 L208,54.9781113 Z" id="Oval-Copy-3" fill="#E0E0E0" fill-rule="nonzero"></path>
        <path d="M358.131203,51.703679 C378.841881,51.703679 395.631203,68.4930009 395.631203,89.203679 C395.631203,109.914357 378.841881,126.703679 358.131203,126.703679 C337.420525,126.703679 320.631203,109.914357 320.631203,89.203679 C320.631203,68.4930009 337.420525,51.703679 358.131203,51.703679 Z M358.131203,54.703679 C339.077379,54.703679 323.631203,70.1498551 323.631203,89.203679 C323.631203,108.257503 339.077379,123.703679 358.131203,123.703679 C377.185027,123.703679 392.631203,108.257503 392.631203,89.203679 C392.631203,70.1498551 377.185027,54.703679 358.131203,54.703679 Z" id="Oval-Copy-4" fill="#E0E0E0" fill-rule="nonzero"></path>
        <g id="Group-9-Copy" transform="translate(323.631203, 54.703679)">
            <mask id="mask-4" fill="white">
                <use xlink:href="#path-3"></use>
            </mask>
            <g id="Mask"></g>
            <g mask="url(#mask-4)" id="Group-14">
                <g transform="translate(13.000000, 8.000000)">
                    <g transform="translate(0.000000, 0.292437)">
                        <path d="M9.29751503,13.7974531 L11.5502638,15.7786454 C9.45911838,18.1564182 8.28903299,21.1928517 8.28903299,24.412504 C8.28903299,31.6708238 14.2258007,37.5597914 21.5552107,37.5597914 C28.8846207,37.5597914 34.8213884,31.6708238 34.8213884,24.412504 C34.8213884,23.4688329 34.7213096,22.539152 34.5248536,21.6338007 L34.4186114,21.1832004 L37.3257763,20.4426656 C37.6538512,21.7306102 37.8213884,23.0612659 37.8213884,24.412504 C37.8213884,33.3331312 30.5360703,40.5597914 21.5552107,40.5597914 C12.5743512,40.5597914 5.28903299,33.3331312 5.28903299,24.412504 C5.28903299,20.592263 6.63204866,16.9753338 9.03591176,14.1023963 L9.29751503,13.7974531 Z" id="Path" fill="#3E4952" fill-rule="nonzero"></path>
                        <path d="M3.51199988,39.4822065 C3.51199988,46.975592 9.50337552,53.0696168 16.9570162,53.2351702 L17.2684187,53.2386253 L26.6401721,53.2386253 C34.1335576,53.2386253 40.2275824,47.2472497 40.3931358,39.7936089 L40.3965909,39.4822065 L43.4205907,39.4822065 C43.4205907,48.6420133 36.081443,56.0876704 26.9627386,56.2595867 L26.6401721,56.2626251 L17.2684187,56.2626251 C8.10861184,56.2626251 0.662954795,48.9234774 0.491038461,39.804773 L0.488000117,39.4822065 L3.51199988,39.4822065 Z" id="Rectangle-36-Copy-3" fill="#3E4952" fill-rule="nonzero" transform="translate(21.954295, 47.872416) rotate(180.000000) translate(-21.954295, -47.872416) "></path>
                        <path d="M36.9453844,9.61173379 C36.0216937,8.31689825 34.6492578,7.45888274 33.0785827,7.19606959 C33.0080026,7.18471841 32.9396949,7.17443558 32.8689811,7.16535464 C31.8553275,5.06832467 29.7242889,3.70404663 27.3450168,3.7017764 L14.4690898,3.7017764 L9.63662357,1.75938954 C6.05227603,5.33901688 6.05227603,11.164842 9.63662357,14.7467396 L30.1081221,14.6087664 L36.6232289,22.0946909 L37.9683952,14.0501779 C38.2324023,12.4825135 37.8690751,10.9065693 36.9453844,9.61173379 Z" id="Shape" fill="#D8D8D8" fill-rule="nonzero"></path>
                        <path d="M14.759,2.201 L9.27729297,-0.00167708195 L8.57666248,0.698030749 C4.40565246,4.86354799 4.40565246,11.6399394 8.57632608,15.8077623 L9.01979781,16.2509309 L29.428,16.113 L37.578463,25.4771072 L39.4478542,14.2975662 C39.7777327,12.3387659 39.3215701,10.3597833 38.166516,8.74062095 L37.9890467,8.501851 C36.959719,7.17217284 35.5319825,6.241946 33.9073685,5.83738908 L33.839,5.822 L33.8125291,5.77683843 C32.4309898,3.57495008 30.001194,2.20431016 27.3464481,2.20177708 L14.759,2.201 Z M9.98258051,3.64193153 L10.057,3.545 L14.1789125,5.2017764 L27.3450168,5.2017764 C29.1307504,5.20348098 30.7474787,6.22311897 31.5184802,7.81815415 L31.8720679,8.54965065 L32.6779227,8.65313711 C32.7258595,8.65929307 32.7766481,8.66678552 32.8404031,8.67703902 C34.0088448,8.87257893 35.0312844,9.51143902 35.7242528,10.4828466 L35.8661528,10.6938654 C36.4529132,11.6210639 36.6729138,12.7103309 36.4892241,13.8010738 L35.667,18.712 L30.787169,13.1041557 L10.286,13.242 L10.1486061,13.076612 C7.9383433,10.3422875 7.88306977,6.4334171 9.98258051,3.64193153 Z" id="Shape" fill="#3E4952" fill-rule="nonzero"></path>
                    </g>
                </g>
            </g>
        </g>
        <path d="M358.5,140 C379.210678,140 396,156.789322 396,177.5 C396,198.210678 379.210678,215 358.5,215 C337.789322,215 321,198.210678 321,177.5 C321,156.789322 337.789322,140 358.5,140 Z M358.5,143 C339.446176,143 324,158.446176 324,177.5 C324,196.553824 339.446176,212 358.5,212 C377.553824,212 393,196.553824 393,177.5 C393,158.446176 377.553824,143 358.5,143 Z" id="Oval-Copy-5" fill="#E0E0E0" fill-rule="nonzero"></path>
        <g id="Group-7" transform="translate(323.631203, 143.203679)">
            <mask id="mask-6" fill="white">
                <use xlink:href="#path-5"></use>
            </mask>
            <g id="Mask"></g>
            <g mask="url(#mask-6)" id="Group">
                <g transform="translate(15.000000, 18.500000)">
                    <path d="M1.88724129,16.8591064 C2.14327944,6.72519173 8.3359032,1.5 20.060743,1.5 C31.7855829,1.5 38.2566444,6.72519173 38.2344178,16.8591064 C38.2193694,23.6150495 35.8892647,27.2860443 31.2441038,27.8720908 C30.3592597,26.5080187 35.3499007,22.5383641 32.8570781,22.4027663 C24.5807109,21.952571 18.1939922,16.3666335 14.0191875,15.2123366 C12.3114104,14.7401513 8.21530765,17.5741113 7.72231249,20.7416335 C7.38684166,22.8970529 10.8667252,26.1396016 9.46991214,27.8720908 C4.24410614,27.2860443 1.71654919,23.6150495 1.88724129,16.8591064 Z" id="Path-7" fill="#D8D8D8"></path>
                    <path d="M13.8247505,13.8069757 C20.0022529,20.0419432 26.4513365,22.7135128 33.1720013,21.8216843 C32.2561931,28.2032163 26.8398578,33.1043151 20.2952409,33.1043151 C13.1074916,33.1043151 7.28066946,27.1926361 7.28066946,19.9002105 C7.28066946,19.8891917 7.28068276,19.8781761 7.28070935,19.8671636 L7.74966121,19.8653613 L7.74966121,19.8653613 C10.0577854,19.3427163 12.0828151,17.3232545 13.8247505,13.8069757 Z" id="Combined-Shape" fill="#FFFFFF"></path>
                    <path d="M20.060743,-4.79616347e-14 C32.6685136,-4.79616347e-14 39.7584147,5.92179101 39.7344177,16.8624433 C39.7181132,24.1641659 37.040338,28.5105976 31.7194363,29.3203032 L31.4318596,29.3602936 L31.056348,26.3838879 C34.8346593,25.9072056 36.7208389,22.935568 36.734364,16.855808 C36.7544797,7.70798079 31.1178204,3 20.060743,3 C9.10243459,3 3.62087819,7.6307728 3.38676276,16.8969925 C3.23706828,22.8218559 5.19020328,25.7766876 9.38758678,26.3504275 L9.63708128,26.381435 L9.302743,29.3627465 C3.220607,28.6806671 0.19896528,24.2920693 0.387719817,16.8212203 C0.66551844,5.82603253 7.56193234,-4.79616347e-14 20.060743,-4.79616347e-14 Z" id="Path" fill="#3E4952" fill-rule="nonzero"></path>
                    <path d="M13.4126255,11.2598072 L12.4806412,13.1411151 L12.3128461,13.4731584 C10.8537394,16.3030373 9.26838094,17.8908468 7.61005784,18.3539481 L7.55920314,18.366 L5.78251212,18.3729106 L5.78067055,19.8983997 C5.78067055,28.0162475 12.2741712,34.6043151 20.2952409,34.6043151 C27.5307623,34.6043151 33.6269197,29.211102 34.6567897,22.034765 L34.9381533,20.0741677 L32.9746818,20.3347193 C26.758378,21.1596193 20.7587021,18.6742194 14.8903097,12.7512373 L13.4126255,11.2598072 Z M14.0048492,16.5518322 L14.1952031,16.245 L14.2348597,16.2819473 C19.5476286,21.1412438 25.1272736,23.5658241 30.9282167,23.4877135 L31.2602031,23.48 L31.2201588,23.6092923 C29.6857766,28.2921619 25.3338176,31.6043151 20.2952409,31.6043151 L20.002822,31.6006123 C14.269163,31.4552556 9.56975199,27.0472395 8.8704645,21.3692954 L8.84120314,21.11 L8.88738168,21.095174 C10.8257656,20.4095267 12.5236587,18.8776156 14.0048492,16.5518322 Z" id="Combined-Shape" fill="#3E4952" fill-rule="nonzero"></path>
                    <path d="M3.40455182,32.796321 L3.40455182,39.8710025 C3.40455182,47.2098618 9.21971416,53.1805603 16.461649,53.3625371 L16.802143,53.3668106 L21.197857,53.3668106 C28.4833071,53.3668106 34.4105533,47.5090177 34.5912058,40.2139926 L34.5954482,39.8710025 L34.5954482,32.796321 L38,32.796321 L38,39.8710025 C38,49.0987568 30.6690745,56.6017295 21.5538849,56.7925967 L21.197857,56.796321 L16.802143,56.796321 C7.64154446,56.796321 0.193175344,49.4116529 0.0036972073,40.2296404 L0,39.8710025 L0,32.796321 L3.40455182,32.796321 Z" id="Rectangle-36-Copy-3" fill="#3E4952" fill-rule="nonzero" transform="translate(19.000000, 44.796321) rotate(180.000000) translate(-19.000000, -44.796321) "></path>
                </g>
            </g>
        </g>
        <path d="M208.131203,140.203679 C228.841881,140.203679 245.631203,156.993001 245.631203,177.703679 C245.631203,198.414357 228.841881,215.203679 208.131203,215.203679 C187.420525,215.203679 170.631203,198.414357 170.631203,177.703679 C170.631203,156.993001 187.420525,140.203679 208.131203,140.203679 Z M208.131203,143.203679 C189.077379,143.203679 173.631203,158.649855 173.631203,177.703679 C173.631203,196.757503 189.077379,212.203679 208.131203,212.203679 C227.185027,212.203679 242.631203,196.757503 242.631203,177.703679 C242.631203,158.649855 227.185027,143.203679 208.131203,143.203679 Z" id="Oval-Copy-6" fill="#E0E0E0" fill-rule="nonzero"></path>
        <g id="Group-9" transform="translate(173.631203, 143.203679)">
            <mask id="mask-8" fill="white">
                <use xlink:href="#path-7"></use>
            </mask>
            <g id="Mask"></g>
            <g mask="url(#mask-8)">
                <g transform="translate(14.500000, 10.000000)">
                    <path d="M6.89636791,22.1991916 C6.82550334,22.7857912 6.78903299,23.382985 6.78903299,23.9886969 C6.78903299,32.1438316 13.4000759,38.7548746 21.5552107,38.7548746 C29.7103455,38.7548746 36.3213884,32.1438316 36.3213884,23.9886969 C36.3213884,23.2015614 36.2597989,22.4288108 36.1411761,21.6750015" id="Path" stroke="#3E4952" stroke-width="3" fill="#FFFFFF" fill-rule="evenodd"></path>
                    <path d="M3.5,37.4079911 C3.5,44.9754213 9.55057845,51.1296632 17.0778711,51.2968525 L17.3923506,51.3003417 L26.5162402,51.3003417 C34.0836704,51.3003417 40.2379122,45.2497633 40.4051016,37.7224706 L40.4085908,37.4079911 L43.4085908,37.4079911 C43.4085908,46.6301444 36.0184898,54.1262471 26.8372343,54.2973529 L26.5162402,54.3003417 L17.3923506,54.3003417 C8.17019733,54.3003417 0.674094594,46.9102407 0.502988805,37.7289852 L0.5,37.4079911 L3.5,37.4079911 Z" id="Rectangle-36-Copy-3" stroke="none" fill="#3E4952" fill-rule="nonzero" transform="translate(21.954295, 45.854166) rotate(180.000000) translate(-21.954295, -45.854166) "></path>
                    <path d="M36.3361268,22.752466 C38.0892779,17.6224561 38.653458,14.1637118 38.0286669,12.376233 C37.6845438,11.3917236 36.2808824,10.290807 33.8176825,9.07348314 C32.8886623,6.18403955 31.9446068,4.46232267 30.985516,3.9083325 C28.8692896,2.68595746 24.2024547,2.04984663 16.9850112,2 L3.76187893,2 L7.74840459,9.07348314 C5.27430627,10.3367729 3.94546439,11.4376896 3.76187893,12.376233 C3.22226517,15.1348989 4.00194871,18.5936432 6.10092953,22.752466 C12.2420275,21.6194503 16.6826686,20.3804497 19.4228528,19.0354641 C22.163037,17.6904785 24.7690115,15.4707348 27.2407763,12.376233 C28.6772076,15.6063719 29.9254542,17.8261156 30.985516,19.0354641 C32.0455779,20.2448126 33.8291148,21.4838133 36.3361268,22.752466 Z" id="Line-28" stroke="none" fill="#DCDCDC" fill-rule="evenodd"></path>
                    <path d="M16.9953706,0.5 L1.19467645,0.5 L5.695,8.484 L5.59997906,8.54087867 C3.6430812,9.70395467 2.53856855,10.8163854 2.28977735,12.0882799 C1.67588165,15.2266972 2.52619516,18.9987623 4.7618187,23.4283226 L5.26809618,24.4314372 L6.37308221,24.2275704 C6.77725921,24.1530008 7.17432286,24.0779514 7.56428482,24.0024134 L8.71287729,23.7743253 C9.08864752,23.6978016 9.45732773,23.6207807 9.81892956,23.543254 L10.8825116,23.3091478 L11.9036934,23.0719547 C12.0703609,23.0321624 12.2352646,22.9922393 12.3984061,22.9521844 L13.3561186,22.7102636 C13.8244127,22.5885035 14.2768723,22.4655371 14.7135367,22.3413352 L15.5658171,22.0912757 C17.3668444,21.5458737 18.8717664,20.976908 20.0837851,20.3820036 L20.4854297,20.1786581 C22.6215912,19.0639932 24.6627265,17.4669832 26.6120708,15.3944696 L26.863,15.122 L27.0024066,15.4045141 C28.0384068,17.4924918 28.982642,19.0261277 29.8575213,20.0242148 C31.0655299,21.4023452 32.9956153,22.7431512 35.6588452,24.0908567 L37.1977754,24.8696196 L37.7555296,23.2375387 C38.1805673,21.9938082 38.5399893,20.8410267 38.8323421,19.7761521 L39.0390086,18.9939312 C39.8475317,15.8029585 39.9975339,13.4630243 39.4446585,11.8812907 L39.3772637,11.70489 C38.8686232,10.4788363 37.5647276,9.37489607 35.454367,8.2309526 L35.047,8.016 L35.0050912,7.89106244 C34.0387689,5.08706767 33.0192889,3.35082744 31.7357789,2.60944622 C30.9870621,2.17697227 30.0058004,1.8150744 28.7860099,1.51996486 L28.2060709,1.38848903 C27.708638,1.28285483 27.1757835,1.18701435 26.6071671,1.1007521 L25.9076398,1.00182115 C25.7881836,0.986094317 25.6672916,0.970747167 25.5449609,0.955777973 L24.7936912,0.870484498 C24.665595,0.857020235 24.5360547,0.84393048 24.4050676,0.83121351 L23.6017614,0.759371312 C23.4649761,0.748138584 23.3267385,0.737275193 23.187046,0.726779414 L22.3314089,0.668202296 L21.4407213,0.618365121 C21.2893452,0.610782656 21.1365033,0.603560907 20.9821927,0.596698151 L20.0386841,0.559815726 L19.059798,0.531466357 L18.0454037,0.511567291 C17.7013398,0.506333458 17.351336,0.502494216 16.9953706,0.5 Z M9.82255405,9.69863559 L6.328,3.499 L16.9850112,3.5 L17.9609921,3.51068189 L18.9033417,3.52894946 L19.8119228,3.55471994 L20.6865978,3.58791054 L21.5272292,3.6284385 L22.3336797,3.67622102 C22.4652321,3.68478473 22.5953545,3.69364726 22.7240442,3.70280689 L23.4789655,3.76131606 L24.1993622,3.82687287 L24.8850968,3.89939453 L25.536032,3.97879826 L26.1520302,4.06500128 C26.4512721,4.10978882 26.7373612,4.15709505 27.01022,4.20687342 L27.5382744,4.30971253 C27.6233358,4.32739714 27.7069214,4.34535299 27.7890285,4.36357835 L28.2639043,4.47615077 C28.3400854,4.49544726 28.4147822,4.51500981 28.4879917,4.53483669 L28.9093797,4.65695618 C29.4473739,4.82397473 29.8898205,5.00768992 30.2352531,5.20721878 C30.4345264,5.32232303 30.7455895,5.69428003 31.0976211,6.33629603 C31.4797912,7.03327702 31.8732477,7.97972475 32.2704223,9.16866741 L32.5839907,10.1369686 L33.4251936,10.5545805 L33.9363764,10.8219027 C34.3440153,11.0414532 34.7057616,11.2525817 35.0214196,11.4524588 L35.3780743,11.6867295 C36.1028401,12.1818301 36.5155199,12.5932211 36.6126753,12.8711753 L36.6520372,12.9960334 C36.9338616,13.9901161 36.7562971,15.8303084 36.0816655,18.4377504 L35.8943743,19.1353053 C35.8281688,19.3735905 35.75818,19.6176254 35.6843831,19.8673581 L35.467,20.58 L35.2198833,20.4358206 C33.8091078,19.6001561 32.7722605,18.7982338 32.1135107,18.0467134 C31.7470685,17.6286658 31.3424358,17.0512985 30.9029377,16.3174001 L30.6048102,15.8049753 C30.4532003,15.5371986 30.2977985,15.2520984 30.1387281,14.949778 L29.8157323,14.3222075 C29.7610965,14.2137959 29.7060623,14.1034786 29.6506341,13.9912594 L29.313374,13.2951522 L28.9668781,12.5535835 L28.6113654,11.7667369 L27.6087432,9.51211547 L26.0687646,11.4400767 C23.727135,14.371657 21.2887169,16.4486778 18.7619205,17.6889247 L18.505843,17.8117565 C17.4598754,18.30227 16.1540859,18.7829671 14.590993,19.2519797 L13.7880162,19.4855036 L12.9422255,19.7170283 C12.7976964,19.7554462 12.6513864,19.7937787 12.5032968,19.8320246 L11.5934164,20.060453 L10.6408969,20.2867524 C10.4785943,20.3242887 10.3145179,20.361734 10.1486694,20.3990875 L9.13232249,20.622096 L8.07351147,20.8428458 C7.89350818,20.8794463 7.71173846,20.9159506 7.52820377,20.9523575 L6.951,21.065 L6.85235337,20.8524733 C5.33924367,17.5233039 4.81850568,14.7882168 5.2339805,12.664186 C5.24152944,12.6255936 5.3107259,12.5209192 5.45619479,12.3676983 L5.62762948,12.1989445 C5.69361019,12.1377322 5.76860729,12.0717753 5.85316242,12.0017232 C6.36938182,11.5740466 7.12905323,11.0920703 8.12475292,10.5679099 L9.82255405,9.69863559 Z" id="Line-28" stroke="none" fill="#3E4952" fill-rule="nonzero"></path>
                </g>
            </g>
        </g>
        <path d="M283.131203,189.703679 C303.841881,189.703679 320.631203,206.493001 320.631203,227.203679 C320.631203,247.914357 303.841881,264.703679 283.131203,264.703679 C262.420525,264.703679 245.631203,247.914357 245.631203,227.203679 C245.631203,206.493001 262.420525,189.703679 283.131203,189.703679 Z M283.131203,192.703679 C264.077379,192.703679 248.631203,208.149855 248.631203,227.203679 C248.631203,246.257503 264.077379,261.703679 283.131203,261.703679 C302.185027,261.703679 317.631203,246.257503 317.631203,227.203679 C317.631203,208.149855 302.185027,192.703679 283.131203,192.703679 Z" id="Oval-Copy-6" fill="#E0E0E0" fill-rule="nonzero"></path>
        <g id="Group-9" transform="translate(248.631203, 192.703679)">
            <mask id="mask-10" fill="white">
                <use xlink:href="#path-9"></use>
            </mask>
            <g id="Mask"></g>
            <g mask="url(#mask-10)" fill="#3E4952" fill-rule="nonzero">
                <g transform="translate(14.500000, 11.000000)">
                    <path d="M37.1409577,18.3197127 C37.5905538,19.8224893 37.8213884,21.3909649 37.8213884,22.9886969 C37.8213884,31.9722588 30.5387726,39.2548746 21.5552107,39.2548746 C12.5716488,39.2548746 5.28903299,31.9722588 5.28903299,22.9886969 C5.28903299,21.6666529 5.44707428,20.3644265 5.75652075,19.1025524 L5.87964734,18.6312813 L8.77046011,19.4332797 C8.45215298,20.5806215 8.28903299,21.7730811 8.28903299,22.9886969 C8.28903299,30.3154045 14.2285031,36.2548746 21.5552107,36.2548746 C28.8819183,36.2548746 34.8213884,30.3154045 34.8213884,22.9886969 C34.8213884,21.8461799 34.6772897,20.7242431 34.3958397,19.6412755 L34.2668286,19.179586 L37.1409577,18.3197127 Z" id="Path"></path>
                    <path d="M20.6494161,0.296321013 C19.4675208,0.296321013 18.3533867,0.331064443 17.3064723,0.402891544 L16.5338816,0.463751624 C9.5671791,1.08604364 5.77125227,3.4887718 4.97009366,8.4324004 L4.94950766,8.5666497 L4.91576406,8.83521245 L4.89144689,9.11253042 L4.8759824,9.40900721 L4.86879686,9.73504643 L4.86931655,10.1010517 L4.87696772,10.5174266 L4.9420368,12.4121591 L4.950264,12.8843215 L4.95158051,13.1292511 L4.96678994,13.5908847 L5.00026289,14.1420644 L5.05201345,14.7834206 L5.12205573,15.5155834 L5.21040382,16.3391831 L5.35670134,17.5806406 L5.53560099,18.987267 L5.74713617,20.5605564 C5.76612484,20.6986496 5.78545382,20.8384945 5.80512318,20.9800948 C6.01362448,22.4811024 8.01658132,22.7074602 8.53297868,21.2883747 C10.1177513,16.9333412 12.3328463,14.4021443 15.1684925,13.5380635 L15.2750251,13.5070977 L15.4939163,13.4526917 C15.531151,13.4444636 15.5687973,13.4366564 15.6069079,13.4292717 L15.8415658,13.3900474 L16.0898998,13.3610444 L16.3544423,13.3423431 L16.6377252,13.3340235 L16.9422808,13.3361659 L17.2706412,13.3488504 L17.6253384,13.3721574 L18.0089047,13.406167 L18.4238721,13.4509594 L18.8727728,13.5066148 L19.358139,13.5732134 L20.1600999,13.6938053 L20.7477077,13.7881129 L21.7149004,13.9506443 L23.3824725,14.2400852 L24.3401368,14.398506 C24.442162,14.4147541 24.5423446,14.4304712 24.6411616,14.4457248 L24.8060976,14.4679023 C25.5579118,14.5547788 26.5605918,14.4859261 27.8404653,14.266697 L28.5036234,14.1445759 C28.6180403,14.1221421 28.7344126,14.0986702 28.8527556,14.0741633 L29.5865834,13.9147269 L30.0780807,13.8000747 L34.8991712,21.6177415 C35.5974225,22.7502924 37.2768117,22.3954574 37.4905513,21.0702137 L38.7694896,13.1404481 C39.0813202,11.2207108 38.654137,9.34831925 37.5533862,7.74852531 L37.3801337,7.50596988 C36.495014,6.31191984 35.330171,5.40205817 34.0268177,4.92405473 L33.9142803,4.88512219 L33.8419377,4.70179473 C33.5379431,3.98875659 33.0087026,3.32078043 32.2316047,2.73638494 C30.1492328,1.17039352 26.4381032,0.296321013 20.6494161,0.296321013 Z M30.4640847,5.23283128 C30.8378106,5.52576203 31.0419843,5.79435097 31.1395243,6.0328082 C31.1724351,6.11326559 31.1838093,6.15279452 31.1893339,6.21149591 L31.2083873,6.45316245 L31.2186612,6.51556867 L31.2633891,6.70274204 L31.2842382,6.80938925 L31.30825,6.89839164 C31.336431,6.9809608 31.3810019,7.04781408 31.4768999,7.13120548 L31.591201,7.22130419 L31.8437952,7.39280395 L32.3728135,7.72695649 C33.392984,7.91144674 34.3836734,8.6364173 35.0884263,9.70397774 L35.2235405,9.92008549 C35.7814487,10.864268 35.9804411,11.9076121 35.8093193,13.0056325 L35.1445655,17.296321 L31.8067437,11.6525587 C31.4835637,11.1062086 30.8734025,10.8432056 30.2903167,10.9989203 L29.9610825,11.0857763 L29.3298455,11.2459094 C29.227687,11.2710941 29.1270596,11.2955283 29.0279744,11.3192143 L28.4520562,11.452371 L27.9136759,11.5676828 C27.8271033,11.5854206 27.7421167,11.6024195 27.6587272,11.6186819 L27.1776416,11.707436 C27.100684,11.7207615 27.0253453,11.7333551 26.9516365,11.745219 L26.5290312,11.8076666 C25.8575804,11.8972166 25.3513188,11.9142743 25.021223,11.8611661 L24.4386159,11.7644661 L21.7824749,11.2888759 L20.4863075,11.0673334 L19.6280976,10.9330823 L19.1046622,10.8588261 L18.6167426,10.7967973 L18.1613835,10.7470235 L17.7356298,10.7095317 L17.336526,10.6843495 L16.961117,10.6715042 L16.6064475,10.671023 C16.5489,10.6719746 16.4920936,10.6734426 16.4359666,10.6754275 L16.1068652,10.6935438 C16.0532097,10.6975985 16.0001105,10.7021712 15.947506,10.7072625 L15.6373236,10.7440379 C15.4847082,10.7655417 15.3354373,10.7917231 15.1878485,10.8225974 L14.8944211,10.8906079 C14.8457262,10.9029874 14.797095,10.9158895 14.748466,10.9293147 L14.4562259,11.0161482 L14.1547583,11.1172364 C11.8594859,11.9280977 9.93170138,13.5629903 8.36908532,15.983139 L8.16957695,16.2972789 L8.0536258,15.1125981 L8.01223274,14.6208359 L7.96953042,13.9913064 C7.96607887,13.9285971 7.96305849,13.8683067 7.96046943,13.8104413 L7.95011185,13.4923999 L7.94574534,12.9665434 L7.87703212,10.7824864 L7.86879686,10.2358339 L7.87084524,9.93580824 L7.87922162,9.67722866 L7.89418074,9.4514541 L7.91597731,9.24984345 C7.92019401,9.21777527 7.92470621,9.18635388 7.92951923,9.15539925 C8.46840903,5.68956436 11.3113316,3.88246476 17.2351635,3.41831616 L17.9463459,3.36988725 L18.6862376,3.33373578 C18.8119609,3.32872731 18.9388922,3.32422563 19.0670373,3.32022838 L19.8505201,3.30227881 L20.663415,3.29632101 C25.8474687,3.29632101 28.972043,4.06335175 30.4640847,5.23283128 Z" id="Shape"></path>
                    <path d="M3.5,36.4079911 C3.5,43.9754213 9.55057845,50.1296632 17.0778711,50.2968525 L17.3923506,50.3003417 L26.5162402,50.3003417 C34.0836704,50.3003417 40.2379122,44.2497633 40.4051016,36.7224706 L40.4085908,36.4079911 L43.4085908,36.4079911 C43.4085908,45.6301444 36.0184898,53.1262471 26.8372343,53.2973529 L26.5162402,53.3003417 L17.3923506,53.3003417 C8.17019733,53.3003417 0.674094594,45.9102407 0.502988805,36.7289852 L0.5,36.4079911 L3.5,36.4079911 Z" id="Rectangle-36-Copy-3" transform="translate(21.954295, 44.854166) rotate(180.000000) translate(-21.954295, -44.854166) "></path>
                </g>
            </g>
        </g>
        <g id="Group-3" transform="translate(52.131203, 132.703679)" fill="#3E4952" fill-rule="nonzero">
            <polygon id="Line-11-Copy" points="79.1447368 48 79.1447368 51 9.35526316 51 9.35526316 48"></polygon>
            <polygon id="Line-11-Copy-2" points="73.1447368 85.5 73.1447368 88.5 3.35526316 88.5 3.35526316 85.5"></polygon>
            <polygon id="Line-11-Copy-6" points="83.6447368 10.5 83.6447368 13.5 13.8552632 13.5 13.8552632 10.5"></polygon>
            <polygon id="Line-11" points="13.1691676 -1.1214711 16.1485245 -0.770142165 1.31401402 125.030208 -1.66534295 124.678879"></polygon>
            <polygon id="Line-11-Copy-5" points="82.1016805 -0.549164369 85.0810375 -0.197835439 70.314014 125.030208 67.334657 124.678879"></polygon>
        </g>
        <path d="M168.358218,76.0496453 L171.232482,76.9090691 L170.80277,78.3462009 C169.928957,81.2685863 168.234995,84.0679011 165.740619,86.7427923 C165.512112,86.9878362 165.285436,87.2280502 165.060577,87.463421 L164.391433,88.1549904 L163.733099,88.8174198 L163.085485,89.4506289 C162.871391,89.6568196 162.659069,89.8581267 162.448503,90.054537 L161.822064,90.6290637 L161.206079,91.1741284 L160.600459,91.6896507 C156.597343,95.0278117 153.279289,96.3911057 150.527704,95.6721736 L150.322396,95.6143479 L148.886546,95.1803716 L149.754499,92.308672 L151.190348,92.7426483 C152.763391,93.2180903 155.169129,92.2306166 158.30588,89.6881801 L158.835423,89.2500271 C158.924803,89.1745967 159.014742,89.0979625 159.105238,89.0201226 L159.654891,88.5385986 L160.21782,88.0280423 C160.407664,87.8530076 160.599703,87.6731184 160.79392,87.4883589 L161.383086,86.9194537 C161.482364,86.8221958 161.582181,86.7237164 161.682537,86.6240134 L162.291107,86.0110981 L162.912482,85.3687242 L163.546558,84.6967972 C165.618682,82.4747162 167.030795,80.2079495 167.799524,77.8953574 L167.928506,77.486777 L168.358218,76.0496453 Z" id="Path" fill="#3E4952" fill-rule="nonzero" transform="translate(160.059514, 85.954272) scale(-1, 1) rotate(47.000000) translate(-160.059514, -85.954272) "></path>
        <g id="Group-2" transform="translate(77.289963, 164.537427) scale(-1, 1) rotate(9.000000) translate(-77.289963, -164.537427) translate(-102.210037, -27.962573)">
            <g id="Group-6" transform="translate(-0.000000, 0.000000)">
                <g id="Group-6-Copy-2" transform="translate(179.505691, 192.611875) rotate(336.000000) translate(-179.505691, -192.611875) translate(51.505691, 39.611875)">
                    <g id="Group-6-Copy" transform="translate(0.303945, 0.290592)">
                        <g id="Group-4-Copy-4" transform="translate(131.295302, 61.756878) rotate(15.000000) translate(-131.295302, -61.756878) translate(79.795302, 11.756878)">
                            <path d="M87.2224377,29.1361367 L0.865484377,29.1361367 L1.17782136,99.1361367 L87.8654844,99.1361367 L87.2224377,29.1361367 Z M84.277281,32.1361367 L84.8654844,96.1361367 L4.15158328,96.1361367 L3.86548438,32.1361367 L84.277281,32.1361367 Z" id="Rectangle-3-Copy-12" fill="#3E4952" fill-rule="nonzero"></path>
                            <polygon id="Rectangle-8-Copy-12" fill="#00A1E7" points="2 11 85 11 85 33.5 2 33.5"></polygon>
                            <path d="M87.5,9.5 L0.5,9.5 L0.5,35 L87.5,35 L87.5,9.5 Z M84.5,12.499 L84.5,31.999 L3.5,31.999 L3.5,12.499 L84.5,12.499 Z" id="Rectangle-8-Copy-12" fill="#3E4952" fill-rule="nonzero"></path>
                            <path d="M102.865484,9.13613666 L84.8654844,9.13613666 L84.8654844,99.1361367 L102.865484,99.1361367 L102.865484,9.13613666 Z M99.8654844,12.1361367 L99.8654844,96.1361367 L87.8654844,96.1361367 L87.8654844,12.1361367 L99.8654844,12.1361367 Z" id="Rectangle-8-Copy-13" fill="#3E4952" fill-rule="nonzero"></path>
                            <path d="M19.7659247,1.09487848 C25.3154306,1.09487848 29.8137229,5.59611288 29.8137229,11.1482673 C29.8137229,16.6078858 25.4639821,21.051465 20.0423612,21.1980678 L19.7657778,21.2018029 L19.7657778,18.2018029 C23.6579902,18.2018029 26.8137229,15.0440064 26.8137229,11.1482673 C26.8137229,7.25252819 23.6581371,4.09487848 19.7659247,4.09487848 C15.9531452,4.09487848 12.8470918,7.1251006 12.7219021,10.9108421 L12.7179796,11.1484141 L9.71797964,11.1484141 C9.71797964,5.59625973 14.2164188,1.09487848 19.7659247,1.09487848 Z" id="Oval-4-Copy-12" fill="#3E4952" fill-rule="nonzero" transform="translate(19.765851, 11.148341) rotate(-92.000000) translate(-19.765851, -11.148341) "></path>
                            <path d="M44.8458483,1.09487848 C50.3953541,1.09487848 54.8936464,5.59611288 54.8936464,11.1482673 C54.8936464,16.6078858 50.5439057,21.051465 45.1222848,21.1980678 L44.8457014,21.2018029 L44.8457014,18.2018029 C48.7379138,18.2018029 51.8936464,15.0440064 51.8936464,11.1482673 C51.8936464,7.25252819 48.7380606,4.09487848 44.8458483,4.09487848 C41.0330688,4.09487848 37.9270153,7.1251006 37.8018257,10.9108421 L37.7979032,11.1484141 L34.7979032,11.1484141 C34.7979032,5.59625973 39.2963424,1.09487848 44.8458483,1.09487848 Z" id="Oval-4-Copy-13" fill="#3E4952" fill-rule="nonzero" transform="translate(44.845775, 11.148341) rotate(-92.000000) translate(-44.845775, -11.148341) "></path>
                            <path d="M69.9257718,1.09487848 C75.4752777,1.09487848 79.97357,5.59611288 79.97357,11.1482673 C79.97357,16.6078858 75.6238292,21.051465 70.2022084,21.1980678 L69.9256249,21.2018029 L69.9256249,18.2018029 C73.8178373,18.2018029 76.97357,15.0440064 76.97357,11.1482673 C76.97357,7.25252819 73.8179842,4.09487848 69.9257718,4.09487848 C66.1129923,4.09487848 63.0069389,7.1251006 62.8817492,10.9108421 L62.8778268,11.1484141 L59.8778268,11.1484141 C59.8778268,5.59625973 64.3762659,1.09487848 69.9257718,1.09487848 Z" id="Oval-4-Copy-14" fill="#3E4952" fill-rule="nonzero" transform="translate(69.925698, 11.148341) rotate(-92.000000) translate(-69.925698, -11.148341) "></path>
                            <ellipse id="Oval-18-Copy-4" fill="#3E4952" cx="24.7198573" cy="49.5245508" rx="4.5599861" ry="4.56072482"></ellipse>
                            <ellipse id="Oval-18-Copy-5" fill="#3E4952" cx="48.6597843" cy="49.5245508" rx="4.5599861" ry="4.56072482"></ellipse>
                        </g>
                        <g id="Group-4-Copy-4" transform="translate(127.497549, 167.722330) scale(-1, 1) rotate(-26.000000) translate(-127.497549, -167.722330) translate(38.997549, 59.222330)">
                            <path d="M66.6679885,-4.29104862 L69.6252499,-3.7864647 L69.1878385,-1.21380104 L68.9256065,0.370680413 L68.6047862,2.3774393 L68.3168877,4.26278465 L68.0618917,6.02627532 L67.8397788,7.66747021 L67.6947619,8.81784442 L67.5682228,9.89899303 L67.4601531,10.9107299 L67.3705447,11.8528691 L67.2993894,12.7252243 L67.2466791,13.5276096 L67.221782,14.023569 L67.1997951,14.708924 L67.1953727,15.126691 L67.1991359,15.5130845 L67.2110824,15.8680494 L67.2312096,16.1915306 C67.4931718,19.520261 68.5237683,23.5957011 70.327949,28.4043727 L70.7758077,29.572525 C71.3156437,30.9517777 71.9161597,32.3884312 72.5774645,33.8821896 L73.4795053,35.8940393 L70.743161,37.1238441 L70.1282586,35.7556719 C66.6058517,27.9182344 64.6387235,21.4876368 64.2404566,16.4268949 L64.2276455,16.2461086 L64.2086943,15.8613121 L64.1986355,15.4455016 C64.1976999,15.3736121 64.1971348,15.3004279 64.19694,15.2259478 L64.2002151,14.7635068 L64.2123763,14.2699058 L64.2334209,13.7450862 L64.2633465,13.1889896 L64.3248809,12.2960727 L64.3769975,11.661528 L64.437986,10.9955018 L64.5078438,10.2979357 L64.5865684,9.56877109 L64.721275,8.41564934 L64.8759173,7.19110238 L65.0504868,5.89493295 L65.2449747,4.5269438 L65.4593724,3.08693766 L65.6936712,1.57471729 L65.9478625,-0.00991458599 L66.2219375,-1.66715522 L66.6679885,-4.29104862 Z" id="Line-21-Copy-26" fill="#3E4952" fill-rule="nonzero" transform="translate(68.838223, 16.416398) rotate(45.000000) translate(-68.838223, -16.416398) "></path>
                            <ellipse id="Oval-Copy-2" fill="#EFEFEF" style="mix-blend-mode: multiply;" transform="translate(88.536213, 191.777559) rotate(10.000000) translate(-88.536213, -191.777559) " cx="88.5362135" cy="191.777559" rx="87.75" ry="9.75"></ellipse>
                            <g id="Group-7" transform="translate(125.261849, 70.116824) rotate(6.000000) translate(-125.261849, -70.116824) translate(112.761849, 59.116824)" fill="#3E4952" fill-rule="nonzero">
                                <path d="M0.43011323,-0.798912898 L3.42851605,-0.701032844 L3.37957603,0.798168568 C3.34454606,1.87125696 3.31566897,2.91736938 3.29294251,3.93649417 L3.25568979,5.93875682 L3.20700111,10.4708024 L3.09611637,16.8052471 L3.04268939,19.3950663 L0.0433353811,19.3328126 L0.190176434,11.5962806 L0.230396065,8.42591577 L0.23490179,7.8489864 C0.247712728,5.93173802 0.285371373,3.9071801 0.347859878,1.77521948 L0.43011323,-0.798912898 Z" id="Line-21-Copy-27" transform="translate(1.735926, 9.298077) rotate(5.000000) translate(-1.735926, -9.298077) "></path>
                                <path d="M21.0227742,0.34855759 L23.9758008,0.877361588 L23.7113988,2.35387491 C23.2601125,4.87401553 22.9757727,7.25678104 22.8576744,9.50172917 L22.7994485,10.8388318 L22.7664251,11.474029 L22.7253949,12.1505673 L22.6763583,12.8684826 L22.6193157,13.6278103 L22.5542678,14.4285862 L22.4001577,16.154625 L22.2140318,18.0468841 L22.0534295,19.5753319 L21.8112856,21.7591626 L21.6415959,23.2495335 L18.6608541,22.9101542 L18.8932045,20.8659365 L19.1240165,18.7547565 L19.3231021,16.8105214 L19.4904652,15.0335163 L19.5951719,13.8106786 L19.6820386,12.6821885 L19.751067,11.6481662 L19.7871764,11.0113596 L19.8153589,10.4166277 L19.8264777,10.135051 C19.9124495,7.78957961 20.1729192,5.31150167 20.6071821,2.70037486 L20.7583722,1.82507091 L21.0227742,0.34855759 Z" id="Line-21-Copy-27" transform="translate(21.318327, 11.799046) rotate(5.000000) translate(-21.318327, -11.799046) "></path>
                            </g>
                        </g>
                    </g>
                </g>
            </g>
        </g>
        <g id="Group-20-Copy" transform="translate(159.631203, 7.703679)">
            <path d="M8.01257009,1.51777924 C11.5220633,1.51426229 14.3676057,4.34807783 14.3640825,7.84931319 C14.360627,11.2704289 11.6381302,14.0576759 8.23864059,14.1831556 L8.00583213,14.1875626 L8.00282014,11.1875642 C9.85822472,11.1857013 11.3622224,9.68788995 11.3640807,7.84628875 C11.3659332,6.00704976 9.86863518,4.51592228 8.01558207,4.51777924 C6.22202318,4.51958341 4.75683614,5.91926552 4.65947278,7.67608868 L4.65432413,7.85906032 L1.65432413,7.85603589 C1.6578515,4.35716796 4.50542315,1.52130696 8.01257009,1.51777924 Z" id="Oval-27-Copy-3" fill="#3E4952" fill-rule="nonzero" transform="translate(8.009205, 7.852669) rotate(-77.000000) translate(-8.009205, -7.852669) "></path>
            <path d="M17.8977432,6.76699297 C26.7736242,6.76699297 33.9706744,13.943597 33.9706744,22.7985238 C33.9706744,31.6534506 26.7736242,38.8300547 17.8977432,38.8300547 C9.02186215,38.8300547 1.82481193,31.6534506 1.82481193,22.7985238 C1.82481193,13.943597 9.02186215,6.76699297 17.8977432,6.76699297 Z M15.7508111,16.1005254 L15.1330473,16.5174844 L14.5251807,16.912257 L13.9612915,17.2643243 L13.5415721,17.5165514 L13.1211213,17.7602055 L12.6102609,18.0432247 L12.2260611,18.2455162 L11.8374247,18.4402262 L11.3771999,18.6569021 C8.81246376,19.817831 6.80401693,19.9229558 5.65905588,18.5208263 L5.58113308,18.4198294 C5.09145307,19.7883779 4.82481193,21.2624493 4.82481193,22.7985238 C4.82481193,29.9946828 10.6768088,35.8300547 17.8977432,35.8300547 C25.1186775,35.8300547 30.9706744,29.9946828 30.9706744,22.7985238 C30.9706744,20.7388923 30.4912925,18.7907332 29.6376378,17.0589572 C27.9884254,18.7754747 26.0732535,19.7276829 24.0857491,19.7276829 C21.5481553,19.7276829 18.8814219,18.5909004 16.0864208,16.3728762 L15.7508111,16.1005254 Z M17.8977432,9.76699297 C13.419371,9.76699297 9.46754596,12.0115058 7.111704,15.4331171 L7.11445449,15.435226 L7.95581193,16.586993 L7.94765666,16.5712832 C7.94238735,16.5567128 7.95198143,16.5494694 7.98996418,16.5449705 L8.1077887,16.5382742 C8.51609109,16.5239252 9.11721205,16.3629076 9.86471313,16.0452028 L10.1192379,15.9334843 L10.539055,15.7358289 L10.8553737,15.5771015 L11.1716566,15.4107167 L11.651995,15.1446026 L12.0170906,14.9328591 L12.3844337,14.712205 L12.9244788,14.3750213 L13.1970524,14.1996208 L13.4669395,14.0227031 L14.0545552,13.6268364 L15.9134162,12.3530007 L17.6546791,13.7833939 C20.0798947,15.7756331 22.2315317,16.7276829 24.0857491,16.7276829 C25.1409217,16.7276829 26.6398258,15.8093091 27.9368974,14.450373 C25.5373636,11.5875988 21.9311041,9.76699297 17.8977432,9.76699297 Z" id="Combined-Shape" fill="#3E4952" fill-rule="nonzero"></path>
            <path d="M33.7954863,75.1261235 L2,75.1261235 L2,52.668303 L2.02490551,52.6685903 C2.49026785,44.3060286 9.41884357,37.668303 17.8977432,37.668303 C26.3766428,37.668303 33.3052185,44.3060286 33.7705808,52.6685903 L33.7954863,52.668303 L33.7954863,75.1261235 Z" id="Combined-Shape" fill="#FFFFFF"></path>
            <path d="M17.568337,36.1713671 C9.02224189,36.3304668 1.93511945,42.6674317 0.692902655,50.9662468 L0.667,51.152 L0.5,51.1509027 L0.5,76.6261235 L35.2954863,76.6261235 L35.2954863,51.1509027 L35.128,51.152 L35.1025837,50.9662468 C33.844441,42.5610367 26.5905627,36.168303 17.8977432,36.168303 L17.568337,36.1713671 Z M18.220117,39.1718507 C25.7229001,39.3371242 31.855824,45.2571131 32.272898,52.7519338 L32.295,53.163 L32.295,73.626 L3.5,73.626 L3.5,53.145 L3.52258834,52.7519338 C3.94562057,45.1500442 10.2489791,39.168303 17.8977432,39.168303 L18.220117,39.1718507 Z" id="Combined-Shape" fill="#3E4952" fill-rule="nonzero"></path>
            <g id="Oval-27-Copy" transform="translate(3.649624, 2.791286)"></g>
        </g>
    </g>
</svg>