<?xml version="1.0" encoding="UTF-8"?>
<svg width="155px" height="23px" viewBox="0 0 155 23" version="1.1" xmlns="http://www.w3.org/2000/svg" xmlns:xlink="http://www.w3.org/1999/xlink">
    <!-- Generator: Sketch 50.2 (55047) - http://www.bohemiancoding.com/sketch -->
    <title>ScheduleOnce logo</title>
    <desc>Created with Sketch.</desc>
    <defs></defs>
    <g id="Navigation" stroke="none" stroke-width="1" fill="none" fill-rule="evenodd">
        <g id="Desktop_OnceHub-Products-navigation" transform="translate(-781.000000, -125.000000)">
            <g id="Group-3" transform="translate(737.000000, 87.000000)">
                <g id="ScheduleOnce-logo" transform="translate(44.000000, 38.000000)">
                    <path d="M117.332882,7.98644559 C117.931363,7.83593088 118.726537,7.67628382 119.718066,7.50648971 C120.708587,7.33737206 121.849736,7.252475 123.140507,7.252475 C124.300149,7.252475 125.263099,7.41753382 126.029693,7.74663676 C126.796624,8.07607794 127.409227,8.53675441 127.867838,9.12934265 C128.325778,9.72193088 128.648218,10.4325632 128.835832,11.2605632 C129.022437,12.0885632 129.116244,13.0007838 129.116244,13.9979015 L129.116244,22.2390044 L126.506797,22.2390044 L126.506797,14.5620779 C126.506797,13.6589897 126.44594,12.8878132 126.324899,12.2482103 C126.202849,11.6086074 126.001786,11.0907691 125.721374,10.6957103 C125.440962,10.3006515 125.066407,10.0141662 124.599389,9.83490147 C124.1317,9.65631324 123.551374,9.56701912 122.859422,9.56701912 C122.579346,9.56701912 122.289183,9.57648971 121.990279,9.59509265 C121.690702,9.61403382 121.40491,9.63737206 121.134921,9.66578382 C120.863251,9.69385735 120.619487,9.72700441 120.405311,9.76421029 C120.189791,9.80243088 120.035127,9.83050441 119.942329,9.84910735 L119.942329,22.2390044 L117.332882,22.2390044 L117.332882,7.98644559 Z" id="Fill-1" fill="#333E48"></path>
                    <path d="M137.672547,22.5776118 C136.494076,22.5776118 135.460855,22.3892147 134.57221,22.0130971 C133.683902,21.6366412 132.935128,21.1100088 132.327905,20.4325235 C131.720009,19.7553765 131.26644,18.9510529 130.967536,18.0195529 C130.667959,17.0883912 130.518675,16.0581265 130.518675,14.9290971 C130.518675,13.8004059 130.68208,12.7657441 131.009564,11.8244353 C131.336375,10.8841412 131.799358,10.0703471 132.397839,9.38339118 C132.996321,8.69677353 133.730638,8.16067059 134.600117,7.77474412 C135.470269,7.38949412 136.438262,7.19602353 137.504098,7.19602353 C138.158393,7.19602353 138.813024,7.25250882 139.467991,7.36547941 C140.122286,7.47845 140.748675,7.65737647 141.347829,7.90158235 L140.758425,10.1312294 C140.36605,9.94317059 139.911809,9.79265588 139.398056,9.67968529 C138.883631,9.56705294 138.33592,9.51022941 137.756603,9.51022941 C136.29772,9.51022941 135.180106,9.97192059 134.404098,10.8936118 C133.627753,11.8153029 133.239748,13.1608029 133.239748,14.9290971 C133.239748,15.7192147 133.328176,16.4437147 133.506375,17.1025971 C133.683902,17.7611412 133.964315,18.3256559 134.347612,18.7954647 C134.731245,19.26595 135.222134,19.6282 135.820616,19.8822147 C136.419098,20.1362294 137.148371,20.2634059 138.009108,20.2634059 C138.701061,20.2634059 139.327449,20.19745 139.888946,20.0655382 C140.44977,19.9343029 140.889217,19.7932588 141.207286,19.6424059 L141.572427,21.8439794 C141.422134,21.9380088 141.207286,22.0273029 140.926874,22.1118618 C140.646462,22.1967588 140.32772,22.2715088 139.973002,22.3378029 C139.617275,22.4030824 139.239022,22.4599059 138.836896,22.5069206 C138.43477,22.5535971 138.04643,22.5776118 137.672547,22.5776118" id="Fill-3" fill="#333E48"></path>
                    <path d="M152.176546,13.4900412 C152.195038,12.3045265 151.900504,11.3307471 151.292945,10.5687029 C150.685049,9.80665882 149.848183,9.42580588 148.782348,9.42580588 C148.183194,9.42580588 147.654984,9.54351176 147.196708,9.77858529 C146.738433,10.0139971 146.350428,10.3194235 146.032695,10.6958794 C145.71429,11.0723353 145.467164,11.5049382 145.288964,11.9940265 C145.111437,12.4834529 144.994767,12.9816735 144.938617,13.4900412 L152.176546,13.4900412 Z M142.161394,14.9292324 C142.161394,13.6310853 142.347663,12.4976588 142.722218,11.5286147 C143.096101,10.5595706 143.59237,9.75524706 144.209008,9.11530588 C144.826654,8.47570294 145.537099,7.99608529 146.341687,7.67611471 C147.145266,7.35614412 147.96801,7.19615882 148.810255,7.19615882 C150.774149,7.19615882 152.279767,7.81276176 153.32711,9.04495294 C154.374452,10.2771441 154.897956,12.1540118 154.897956,14.6752176 L154.897956,15.1128941 C154.897956,15.2914824 154.888205,15.4562029 154.870049,15.6067176 L144.882804,15.6067176 C144.994767,17.1308059 145.433877,18.2875706 146.201144,19.0780265 C146.968075,19.8681441 148.164702,20.2632029 149.792034,20.2632029 C150.708248,20.2632029 151.47955,20.1837176 152.106611,20.0233941 C152.732999,19.8637471 153.20506,19.7084971 153.523465,19.5576441 L153.887934,21.7588794 C153.570201,21.9283353 153.013411,22.1072618 152.21891,22.2953206 C151.423736,22.4833794 150.521643,22.5777471 149.511621,22.5777471 C148.239344,22.5777471 147.140895,22.3842765 146.21493,21.9990265 C145.288964,21.6134382 144.527077,21.0817324 143.928595,20.4042471 C143.329778,19.7271 142.885624,18.9227765 142.596133,17.9916147 C142.305971,17.0601147 142.161394,16.0396588 142.161394,14.9292324 L142.161394,14.9292324 Z" id="Fill-5" fill="#333E48"></path>
                    <path d="M6.00364425,20.2914118 C8.84643167,20.2914118 10.2679935,19.3135735 10.2679935,17.3565441 C10.2679935,16.7544853 10.1419089,16.2417206 9.88940347,15.81825 C9.63689805,15.3947794 9.29529284,15.0277941 8.8652603,14.7176324 C8.43455531,14.4071324 7.94400217,14.13925 7.39225597,13.9133088 C6.84050976,13.6873676 6.25614967,13.4614265 5.63883948,13.2358235 C4.92772234,12.9916176 4.2545987,12.7135882 3.61913232,12.4034265 C2.98265727,12.0929265 2.43124729,11.7259412 1.96355748,11.3024706 C1.49586768,10.879 1.12635575,10.3763824 0.855357918,9.79258824 C0.584023861,9.20947059 0.448861171,8.50425 0.448861171,7.67625 C0.448861171,5.96410294 1.02817787,4.62773529 2.18815618,3.6685 C3.34746204,2.70892647 4.94655098,2.22897059 6.98542299,2.22897059 C8.16389371,2.22897059 9.23443601,2.35614706 10.1977223,2.61016176 C11.1610087,2.86417647 11.8670824,3.14186765 12.3159436,3.44289706 L11.446128,5.67220588 C11.0534165,5.428 10.4687202,5.18819118 9.6927115,4.95244118 C8.91670282,4.71736765 8.01393709,4.59966176 6.98542299,4.59966176 C6.46191974,4.59966176 5.97573753,4.65614706 5.52654013,4.76877941 C5.07801518,4.88175 4.68496746,5.05154412 4.34840564,5.27680882 C4.01184382,5.50275 3.74521692,5.78991176 3.54886117,6.13761765 C3.35250542,6.48633824 3.25432755,6.89560294 3.25432755,7.36541176 C3.25432755,7.89272059 3.35654013,8.33479412 3.56264642,8.69197059 C3.76841649,9.04982353 4.05824295,9.36505882 4.43246204,9.63733824 C4.8063449,9.91063235 5.24142082,10.1595735 5.73701735,10.3851765 C6.23261388,10.6111176 6.77965293,10.8367206 7.37813449,11.0626618 C8.22004338,11.4015735 8.9913449,11.7398088 9.6927115,12.0787206 C10.3944143,12.4172941 11.0016377,12.8221618 11.5163991,13.2923088 C12.0304881,13.7627941 12.428243,14.3225735 12.7089913,14.9713088 C12.9894035,15.6207206 13.1296095,16.4064412 13.1296095,17.3281324 C13.1296095,19.0402794 12.5075922,20.3577059 11.2638937,21.2790588 C10.019859,22.2014265 8.26644252,22.6621029 6.00364425,22.6621029 C5.23671367,22.6621029 4.53063991,22.6103529 3.88542299,22.5068529 C3.24020607,22.4033529 2.66492408,22.2809118 2.15991323,22.1398676 C1.65523861,21.9988235 1.22016269,21.8486471 0.855357918,21.6886618 C0.490889371,21.5290147 0.205433839,21.3920294 0,21.2790588 L0.813329718,19.0216765 C1.24336226,19.2662206 1.89832972,19.5391765 2.77722343,19.8402059 C3.65645336,20.1412353 4.73136659,20.2914118 6.00364425,20.2914118" id="Fill-8" fill="#009BDE"></path>
                    <path d="M21.1812375,22.5776118 C20.0027668,22.5776118 18.9692093,22.3892147 18.0809013,22.0130971 C17.1925933,21.6366412 16.4444913,21.1100088 15.8365954,20.4325235 C15.2286996,19.7553765 14.774795,18.9510529 14.4758905,18.0195529 C14.1766497,17.0883912 14.0273655,16.0581265 14.0273655,14.9290971 C14.0273655,13.8004059 14.1907711,12.7657441 14.5182549,11.8244353 C14.8450662,10.8841412 15.3080488,10.0703471 15.9068666,9.38339118 C16.5050119,8.69677353 17.2396649,8.16067059 18.1091443,7.77474412 C18.9789599,7.38949412 19.9469534,7.19602353 21.0127885,7.19602353 C21.6670835,7.19602353 22.3217148,7.25250882 22.9766822,7.36547941 C23.6309772,7.47845 24.2573655,7.65737647 24.8561833,7.90158235 L24.2674523,10.1312294 C23.8744046,9.94317059 23.4208362,9.79265588 22.9067473,9.67968529 C22.3919859,9.56705294 21.8449469,9.51022941 21.2652939,9.51022941 C19.8064111,9.51022941 18.688461,9.97192059 17.9127885,10.8936118 C17.1364436,11.8153029 16.7484393,13.1608029 16.7484393,14.9290971 C16.7484393,15.7192147 16.8372028,16.4437147 17.0150662,17.1025971 C17.1925933,17.7611412 17.4730054,18.3256559 17.8566388,18.7954647 C18.2395998,19.26595 18.7304892,19.6282 19.3296432,19.8822147 C19.9277885,20.1362294 20.6570618,20.2634059 21.5177993,20.2634059 C22.2097516,20.2634059 22.8364761,20.19745 23.3976367,20.0655382 C23.958461,19.9343029 24.3975716,19.7932588 24.7159772,19.6424059 L25.080782,21.8439794 C24.9308254,21.9380088 24.7159772,22.0273029 24.4355651,22.1118618 C24.1551529,22.1967588 23.8367473,22.2715088 23.4816931,22.3378029 C23.1259664,22.4030824 22.7473764,22.4599059 22.3452505,22.5069206 C21.9431247,22.5535971 21.5547842,22.5776118 21.1812375,22.5776118" id="Fill-11" fill="#009BDE"></path>
                    <path d="M26.4833471,22.2389029 L26.4833471,0.789711765 L29.0924577,0.338167647 L29.0924577,7.8453 C29.5786399,7.65757941 30.0977722,7.51146176 30.6495184,7.40796176 C31.2009284,7.3048 31.7479675,7.25237353 32.2906356,7.25237353 C33.4502777,7.25237353 34.4132278,7.41777059 35.1804946,7.74653529 C35.9470889,8.07597647 36.5593557,8.53699118 37.0183037,9.12924118 C37.4759067,9.72216765 37.7986833,10.4324618 37.9856247,11.2604618 C38.1729024,12.0884618 38.2663731,13.0010206 38.2663731,13.9981382 L38.2663731,22.2389029 L35.6575987,22.2389029 L35.6575987,14.5623147 C35.6575987,13.6592265 35.5964056,12.88805 35.4750282,12.2481088 C35.3533145,11.6088441 35.1522516,11.0910059 34.8718395,10.6959471 C34.5914273,10.3008882 34.216872,10.0140647 33.7495184,9.83513824 C33.2818286,9.65655 32.7018395,9.56691765 32.0102234,9.56691765 C31.7298113,9.56691765 31.4396486,9.58585882 31.140744,9.62340294 C30.8408308,9.66128529 30.5557115,9.70356471 30.2850499,9.75024118 C30.0137158,9.79759412 29.7699523,9.84900588 29.5554403,9.90582941 C29.340256,9.96197647 29.1859284,10.0093294 29.0924577,10.0468735 L29.0924577,22.2389029 L26.4833471,22.2389029 Z" id="Fill-13" fill="#009BDE"></path>
                    <path d="M49.6008406,13.4900412 C49.619333,12.3045265 49.3244631,11.3307471 48.7172397,10.5687029 C48.1090076,9.80665882 47.2721421,9.42580588 46.2059707,9.42580588 C45.6074892,9.42580588 45.0789425,9.54351176 44.620667,9.77858529 C44.1623915,10.0139971 43.7743872,10.3194235 43.456654,10.6958794 C43.1385846,11.0723353 42.8907863,11.5049382 42.7132592,11.9940265 C42.5350597,12.4834529 42.4187256,12.9816735 42.3625759,13.4900412 L49.6008406,13.4900412 Z M39.5853525,14.9292324 C39.5853525,13.6310853 39.7719577,12.4976588 40.1461768,11.5286147 C40.5200597,10.5595706 41.0159924,9.75524706 41.6329664,9.11530588 C42.2502766,8.47570294 42.9610575,7.99608529 43.7653091,7.67611471 C44.5695607,7.35614412 45.392641,7.19615882 46.2338774,7.19615882 C48.1977711,7.19615882 49.7033894,7.81276176 50.7510683,9.04495294 C51.7984111,10.2771441 52.3219143,12.1540118 52.3219143,14.6752176 L52.3219143,15.1128941 C52.3219143,15.2914824 52.3121638,15.4562029 52.2936714,15.6067176 L42.3064262,15.6067176 C42.4187256,17.1308059 42.8578362,18.2875706 43.625103,19.0780265 C44.3916974,19.8681441 45.5886605,20.2632029 47.2159924,20.2632029 C48.1322072,20.2632029 48.9038449,20.1837176 49.5305694,20.0233941 C50.1569577,19.8637471 50.6290184,19.7084971 50.9474241,19.5576441 L51.3118926,21.7588794 C50.9938232,21.9283353 50.4373698,22.1072618 49.6428688,22.2953206 C48.8476952,22.4833794 47.9452657,22.5777471 46.9355803,22.5777471 C45.6633026,22.5777471 44.5648536,22.3842765 43.6388883,21.9990265 C42.7132592,21.6134382 41.9510358,21.0817324 41.3525542,20.4042471 C40.7540727,19.7271 40.3095824,18.9227765 40.019756,17.9916147 C39.7295933,17.0601147 39.5853525,16.0396588 39.5853525,14.9292324 L39.5853525,14.9292324 Z" id="Fill-16" fill="#009BDE"></path>
                    <path d="M64.1045033,10.6677044 C63.7864338,10.4042191 63.3284946,10.1505426 62.730013,9.90566029 C62.1311952,9.66111618 61.476564,9.538675 60.7661193,9.538675 C60.0176811,9.538675 59.3771714,9.67532206 58.8442538,9.94793971 C58.3113362,10.2208956 57.8765965,10.5970132 57.5400347,11.0766309 C57.2031367,11.5565868 56.9600456,12.126175 56.8104252,12.7843809 C56.6604685,13.4432632 56.5861627,14.1488221 56.5861627,14.9010574 C56.5861627,16.6132044 57.0071171,17.9346897 57.8483536,18.8661897 C58.6899262,19.7973515 59.8122473,20.2634397 61.2153167,20.2634397 C61.9257614,20.2634397 62.5195358,20.2306309 62.9966399,20.1643368 C63.473744,20.0987191 63.8425835,20.0280279 64.1045033,19.9529397 L64.1045033,10.6677044 Z M64.1045033,0.789542647 L66.7139501,0.337998529 L66.7139501,21.8156015 C66.1147961,21.9847191 65.348538,22.154175 64.4134946,22.3236309 C63.478115,22.4927485 62.4025293,22.5776456 61.1867375,22.5776456 C60.0647527,22.5776456 59.054731,22.3983809 58.1570087,22.0412044 C57.2596226,21.6840279 56.4920195,21.1759985 55.8565531,20.5171162 C55.2207505,19.8589103 54.7295249,19.0545868 54.3835488,18.1041456 C54.0372364,17.1543809 53.8647527,16.0862338 53.8647527,14.9010574 C53.8647527,13.7720279 54.0093297,12.7377044 54.2994924,11.7963956 C54.5889826,10.8557632 55.0146443,10.0467044 55.576141,9.36921912 C56.1369653,8.69207206 56.8245466,8.16543971 57.6378764,7.78898382 C58.4515423,7.41286618 59.3818785,7.22446912 60.4292213,7.22446912 C61.2711302,7.22446912 62.0145249,7.33743971 62.6597419,7.56304265 C63.3049588,7.78898382 63.7864338,8.00545441 64.1045033,8.21211618 L64.1045033,0.789542647 Z" id="Fill-18" fill="#009BDE"></path>
                    <path d="M80.7128709,21.8156015 C80.1143894,21.9661162 79.3245954,22.1257632 78.3424805,22.2952191 C77.3607017,22.464675 76.223923,22.5492338 74.9338254,22.5492338 C73.8111681,22.5492338 72.8670466,22.3845132 72.0997798,22.0554103 C71.3328492,21.7263074 70.715539,21.2605574 70.2485217,20.6584985 C69.7804957,20.0564397 69.4439338,19.3461456 69.2388362,18.5276162 C69.0327299,17.7090868 68.9295087,16.8016015 68.9295087,15.8041456 L68.9295087,7.56304265 L71.5389555,7.56304265 L71.5389555,15.2399691 C71.5389555,17.0272044 71.8193677,18.3067485 72.380192,19.077925 C72.9420249,19.8497779 73.8858102,20.2350279 75.2142375,20.2350279 C75.4946497,20.2350279 75.7848124,20.2258956 76.0833807,20.2069544 C76.3826215,20.1883515 76.6637061,20.1643368 76.9256258,20.1362632 C77.1872093,20.1081897 77.4255933,20.0801162 77.6411139,20.0513662 C77.8552896,20.0232926 78.0099534,19.9904838 78.1040965,19.9529397 L78.1040965,7.56304265 L80.7128709,7.56304265 L80.7128709,21.8156015 Z" id="Fill-21" fill="#009BDE"></path>
                    <path d="M87.6143384,22.5209912 C86.0054989,22.4834471 84.8650217,22.1357412 84.1915618,21.4768588 C83.518102,20.8186529 83.1815401,19.7934618 83.1815401,18.4006088 L83.1815401,0.789711765 L85.7903145,0.338167647 L85.7903145,17.9771382 C85.7903145,18.4104176 85.8279718,18.7675941 85.9029501,19.0496824 C85.9775922,19.3321088 86.0993059,19.5577118 86.2674187,19.7271676 C86.4358677,19.8962853 86.6604664,20.0234618 86.9408785,20.1080206 C87.2212907,20.1929176 87.5672668,20.2632706 87.9788069,20.3197559 L87.6143384,22.5209912 Z" id="Fill-23" fill="#009BDE"></path>
                    <path d="M98.4149469,13.4900412 C98.4337755,12.3045265 98.1392419,11.3307471 97.5316822,10.5687029 C96.9234501,9.80665882 96.0865846,9.42580588 95.0207495,9.42580588 C94.4219317,9.42580588 93.893385,9.54351176 93.4351095,9.77858529 C92.9768341,10.0139971 92.5888297,10.3194235 92.2710965,10.6958794 C91.9530271,11.0723353 91.7055651,11.5049382 91.5277017,11.9940265 C91.3498384,12.4834529 91.2331681,12.9816735 91.1770184,13.4900412 L98.4149469,13.4900412 Z M88.399795,14.9292324 C88.399795,13.6310853 88.5864002,12.4976588 88.9606193,11.5286147 C89.3345022,10.5595706 89.8307711,9.75524706 90.4477451,9.11530588 C91.0650553,8.47570294 91.7755,7.99608529 92.5800879,7.67611471 C93.3840033,7.35614412 94.2067473,7.19615882 95.0486562,7.19615882 C97.0125499,7.19615882 98.5181681,7.81276176 99.5655108,9.04495294 C100.612854,10.2771441 101.136357,12.1540118 101.136357,14.6752176 L101.136357,15.1128941 C101.136357,15.2914824 101.126606,15.4562029 101.10845,15.6067176 L91.121205,15.6067176 C91.2331681,17.1308059 91.6722787,18.2875706 92.4395456,19.0780265 C93.2064761,19.8681441 94.403103,20.2632029 96.0307711,20.2632029 C96.9466497,20.2632029 97.7182874,20.1837176 98.3450119,20.0233941 C98.9714002,19.8637471 99.443461,19.7084971 99.7618666,19.5576441 L100.126335,21.7588794 C99.808602,21.9283353 99.2518124,22.1072618 98.4576475,22.2953206 C97.6621377,22.4833794 96.7600445,22.5777471 95.750359,22.5777471 C94.4777451,22.5777471 93.3792961,22.3842765 92.453667,21.9990265 C91.5277017,21.6134382 90.7654783,21.0817324 90.167333,20.4042471 C89.568179,19.7271 89.1240249,18.9227765 88.8348709,17.9916147 C88.544372,17.0601147 88.399795,16.0396588 88.399795,14.9292324 L88.399795,14.9292324 Z" id="Fill-26" fill="#009BDE"></path>
                    <path d="M106.25287,4.53935441 C107.296178,4.53935441 108.230885,4.72606029 109.057328,5.10014853 C109.375061,5.24389853 109.668922,5.40895735 109.950343,5.58889853 L111.680896,3.84800147 C111.131839,3.46072206 110.543781,3.13466324 109.905961,2.88606029 C108.794399,2.45413382 107.612566,2.23800147 106.360798,2.23800147 C105.090202,2.23800147 103.889876,2.45413382 102.759822,2.88606029 C101.819399,3.24594265 100.982197,3.76039853 100.235777,4.41217794 L101.666753,6.26333971 C102.174117,5.77256029 102.760158,5.40117794 103.433618,5.10014853 C104.270148,4.72606029 105.209226,4.53935441 106.25287,4.53935441" id="Fill-28" fill="#333E48"></path>
                    <path d="M112.759676,10.1440147 C112.904925,10.8627647 112.983602,11.6278529 112.983602,12.4484118 C112.983602,13.6569265 112.825576,14.7551765 112.511541,15.7428235 C112.196162,16.7308088 111.748309,17.5696324 111.167984,18.2599706 C110.587322,18.9503088 109.883938,19.4383824 109.057159,19.8121324 C108.230717,20.1862206 107.29601,20.3736029 106.252702,20.3736029 C105.209394,20.3736029 104.269979,20.1862206 103.433786,19.8121324 C103.367214,19.7827059 103.307366,19.7475294 103.24281,19.7164118 L102.491682,21.8814559 C102.581791,21.9193382 102.667528,21.965 102.75999,22.0001765 C103.889708,22.4324412 105.090034,22.6485735 106.360966,22.6485735 C107.612398,22.6485735 108.794231,22.4324412 109.906129,22.0001765 C111.017018,21.5679118 111.99409,20.9245882 112.834654,20.0691912 C113.675554,19.2141324 114.342962,18.1476765 114.838222,16.8694853 C115.33281,15.5916324 115.580945,14.11625 115.580945,12.443 C115.580945,10.7819265 115.335164,9.31635294 114.846964,8.04425 L112.759676,10.1440147 Z" id="Fill-30" fill="#333E48"></path>
                    <path d="M112.816498,4.81153235 C112.816498,4.81153235 113.595869,5.55395882 114.182246,6.64882647 L105.74601,15.0563412 L102.431498,10.6765324 L103.711845,8.90553235 L105.91345,11.7957529 L112.816498,4.81153235 Z" id="Fill-32" fill="#009BDE"></path>
                </g>
            </g>
        </g>
    </g>
</svg>